<?xml version="1.0" encoding="utf-8" standalone="no"?>
<!DOCTYPE svg PUBLIC "-//W3C//DTD SVG 1.1//EN"
  "http://www.w3.org/Graphics/SVG/1.1/DTD/svg11.dtd">
<!-- Created with matplotlib (https://matplotlib.org/) -->
<svg height="921.6pt" version="1.1" viewBox="0 0 921.6 921.6" width="921.6pt" xmlns="http://www.w3.org/2000/svg" xmlns:xlink="http://www.w3.org/1999/xlink">
 <defs>
  <style type="text/css">
*{stroke-linecap:butt;stroke-linejoin:round;}
  </style>
 </defs>
 <g id="figure_1">
  <g id="patch_1">
   <path d="M 0 921.6 
L 921.6 921.6 
L 921.6 0 
L 0 0 
z
" style="fill:#ffffff;"/>
  </g>
  <g id="axes_1">
   <g id="patch_2">
    <path d="M 115.2 319.307294 
L 829.44 319.307294 
L 829.44 110.592 
L 115.2 110.592 
z
" style="fill:#ffffff;"/>
   </g>
   <g id="matplotlib.axis_1">
    <g id="xtick_1">
     <g id="line2d_1">
      <defs>
       <path d="M 0 0 
L 0 3.5 
" id="mfb90e0ae82" style="stroke:#000000;stroke-width:0.8;"/>
      </defs>
      <g>
       <use style="stroke:#000000;stroke-width:0.8;" x="201.774545" xlink:href="#mfb90e0ae82" y="319.307294"/>
      </g>
     </g>
     <g id="text_1">
      <!-- −100 -->
      <defs>
       <path d="M 10.59375 35.5 
L 73.1875 35.5 
L 73.1875 27.203125 
L 10.59375 27.203125 
z
" id="DejaVuSans-8722"/>
       <path d="M 12.40625 8.296875 
L 28.515625 8.296875 
L 28.515625 63.921875 
L 10.984375 60.40625 
L 10.984375 69.390625 
L 28.421875 72.90625 
L 38.28125 72.90625 
L 38.28125 8.296875 
L 54.390625 8.296875 
L 54.390625 0 
L 12.40625 0 
z
" id="DejaVuSans-49"/>
       <path d="M 31.78125 66.40625 
Q 24.171875 66.40625 20.328125 58.90625 
Q 16.5 51.421875 16.5 36.375 
Q 16.5 21.390625 20.328125 13.890625 
Q 24.171875 6.390625 31.78125 6.390625 
Q 39.453125 6.390625 43.28125 13.890625 
Q 47.125 21.390625 47.125 36.375 
Q 47.125 51.421875 43.28125 58.90625 
Q 39.453125 66.40625 31.78125 66.40625 
z
M 31.78125 74.21875 
Q 44.046875 74.21875 50.515625 64.515625 
Q 56.984375 54.828125 56.984375 36.375 
Q 56.984375 17.96875 50.515625 8.265625 
Q 44.046875 -1.421875 31.78125 -1.421875 
Q 19.53125 -1.421875 13.0625 8.265625 
Q 6.59375 17.96875 6.59375 36.375 
Q 6.59375 54.828125 13.0625 64.515625 
Q 19.53125 74.21875 31.78125 74.21875 
z
" id="DejaVuSans-48"/>
      </defs>
      <g transform="translate(188.040952 333.905732)scale(0.1 -0.1)">
       <use xlink:href="#DejaVuSans-8722"/>
       <use x="83.789062" xlink:href="#DejaVuSans-49"/>
       <use x="147.412109" xlink:href="#DejaVuSans-48"/>
       <use x="211.035156" xlink:href="#DejaVuSans-48"/>
      </g>
     </g>
    </g>
    <g id="xtick_2">
     <g id="line2d_2">
      <g>
       <use style="stroke:#000000;stroke-width:0.8;" x="337.047273" xlink:href="#mfb90e0ae82" y="319.307294"/>
      </g>
     </g>
     <g id="text_2">
      <!-- −50 -->
      <defs>
       <path d="M 10.796875 72.90625 
L 49.515625 72.90625 
L 49.515625 64.59375 
L 19.828125 64.59375 
L 19.828125 46.734375 
Q 21.96875 47.46875 24.109375 47.828125 
Q 26.265625 48.1875 28.421875 48.1875 
Q 40.625 48.1875 47.75 41.5 
Q 54.890625 34.8125 54.890625 23.390625 
Q 54.890625 11.625 47.5625 5.09375 
Q 40.234375 -1.421875 26.90625 -1.421875 
Q 22.3125 -1.421875 17.546875 -0.640625 
Q 12.796875 0.140625 7.71875 1.703125 
L 7.71875 11.625 
Q 12.109375 9.234375 16.796875 8.0625 
Q 21.484375 6.890625 26.703125 6.890625 
Q 35.15625 6.890625 40.078125 11.328125 
Q 45.015625 15.765625 45.015625 23.390625 
Q 45.015625 31 40.078125 35.4375 
Q 35.15625 39.890625 26.703125 39.890625 
Q 22.75 39.890625 18.8125 39.015625 
Q 14.890625 38.140625 10.796875 36.28125 
z
" id="DejaVuSans-53"/>
      </defs>
      <g transform="translate(326.494929 333.905732)scale(0.1 -0.1)">
       <use xlink:href="#DejaVuSans-8722"/>
       <use x="83.789062" xlink:href="#DejaVuSans-53"/>
       <use x="147.412109" xlink:href="#DejaVuSans-48"/>
      </g>
     </g>
    </g>
    <g id="xtick_3">
     <g id="line2d_3">
      <g>
       <use style="stroke:#000000;stroke-width:0.8;" x="472.32" xlink:href="#mfb90e0ae82" y="319.307294"/>
      </g>
     </g>
     <g id="text_3">
      <!-- 0 -->
      <g transform="translate(469.13875 333.905732)scale(0.1 -0.1)">
       <use xlink:href="#DejaVuSans-48"/>
      </g>
     </g>
    </g>
    <g id="xtick_4">
     <g id="line2d_4">
      <g>
       <use style="stroke:#000000;stroke-width:0.8;" x="607.592727" xlink:href="#mfb90e0ae82" y="319.307294"/>
      </g>
     </g>
     <g id="text_4">
      <!-- 50 -->
      <g transform="translate(601.230227 333.905732)scale(0.1 -0.1)">
       <use xlink:href="#DejaVuSans-53"/>
       <use x="63.623047" xlink:href="#DejaVuSans-48"/>
      </g>
     </g>
    </g>
    <g id="xtick_5">
     <g id="line2d_5">
      <g>
       <use style="stroke:#000000;stroke-width:0.8;" x="742.865455" xlink:href="#mfb90e0ae82" y="319.307294"/>
      </g>
     </g>
     <g id="text_5">
      <!-- 100 -->
      <g transform="translate(733.321705 333.905732)scale(0.1 -0.1)">
       <use xlink:href="#DejaVuSans-49"/>
       <use x="63.623047" xlink:href="#DejaVuSans-48"/>
       <use x="127.246094" xlink:href="#DejaVuSans-48"/>
      </g>
     </g>
    </g>
    <g id="text_6">
     <!-- x -->
     <defs>
      <path d="M 54.890625 54.6875 
L 35.109375 28.078125 
L 55.90625 0 
L 45.3125 0 
L 29.390625 21.484375 
L 13.484375 0 
L 2.875 0 
L 24.125 28.609375 
L 4.6875 54.6875 
L 15.28125 54.6875 
L 29.78125 35.203125 
L 44.28125 54.6875 
z
" id="DejaVuSans-120"/>
     </defs>
     <g transform="translate(469.360625 347.583857)scale(0.1 -0.1)">
      <use xlink:href="#DejaVuSans-120"/>
     </g>
    </g>
   </g>
   <g id="matplotlib.axis_2">
    <g id="ytick_1">
     <g id="line2d_6">
      <defs>
       <path d="M 0 0 
L -3.5 0 
" id="mcd4882fb6e" style="stroke:#000000;stroke-width:0.8;"/>
      </defs>
      <g>
       <use style="stroke:#000000;stroke-width:0.8;" x="115.2" xlink:href="#mcd4882fb6e" y="298.667124"/>
      </g>
     </g>
     <g id="text_7">
      <!-- −0.10 -->
      <defs>
       <path d="M 10.6875 12.40625 
L 21 12.40625 
L 21 0 
L 10.6875 0 
z
" id="DejaVuSans-46"/>
      </defs>
      <g transform="translate(77.554688 302.466342)scale(0.1 -0.1)">
       <use xlink:href="#DejaVuSans-8722"/>
       <use x="83.789062" xlink:href="#DejaVuSans-48"/>
       <use x="147.412109" xlink:href="#DejaVuSans-46"/>
       <use x="179.199219" xlink:href="#DejaVuSans-49"/>
       <use x="242.822266" xlink:href="#DejaVuSans-48"/>
      </g>
     </g>
    </g>
    <g id="ytick_2">
     <g id="line2d_7">
      <g>
       <use style="stroke:#000000;stroke-width:0.8;" x="115.2" xlink:href="#mcd4882fb6e" y="275.337248"/>
      </g>
     </g>
     <g id="text_8">
      <!-- −0.05 -->
      <g transform="translate(77.554688 279.136467)scale(0.1 -0.1)">
       <use xlink:href="#DejaVuSans-8722"/>
       <use x="83.789062" xlink:href="#DejaVuSans-48"/>
       <use x="147.412109" xlink:href="#DejaVuSans-46"/>
       <use x="179.199219" xlink:href="#DejaVuSans-48"/>
       <use x="242.822266" xlink:href="#DejaVuSans-53"/>
      </g>
     </g>
    </g>
    <g id="ytick_3">
     <g id="line2d_8">
      <g>
       <use style="stroke:#000000;stroke-width:0.8;" x="115.2" xlink:href="#mcd4882fb6e" y="252.007373"/>
      </g>
     </g>
     <g id="text_9">
      <!-- 0.00 -->
      <g transform="translate(85.934375 255.806592)scale(0.1 -0.1)">
       <use xlink:href="#DejaVuSans-48"/>
       <use x="63.623047" xlink:href="#DejaVuSans-46"/>
       <use x="95.410156" xlink:href="#DejaVuSans-48"/>
       <use x="159.033203" xlink:href="#DejaVuSans-48"/>
      </g>
     </g>
    </g>
    <g id="ytick_4">
     <g id="line2d_9">
      <g>
       <use style="stroke:#000000;stroke-width:0.8;" x="115.2" xlink:href="#mcd4882fb6e" y="228.677498"/>
      </g>
     </g>
     <g id="text_10">
      <!-- 0.05 -->
      <g transform="translate(85.934375 232.476717)scale(0.1 -0.1)">
       <use xlink:href="#DejaVuSans-48"/>
       <use x="63.623047" xlink:href="#DejaVuSans-46"/>
       <use x="95.410156" xlink:href="#DejaVuSans-48"/>
       <use x="159.033203" xlink:href="#DejaVuSans-53"/>
      </g>
     </g>
    </g>
    <g id="ytick_5">
     <g id="line2d_10">
      <g>
       <use style="stroke:#000000;stroke-width:0.8;" x="115.2" xlink:href="#mcd4882fb6e" y="205.347623"/>
      </g>
     </g>
     <g id="text_11">
      <!-- 0.10 -->
      <g transform="translate(85.934375 209.146842)scale(0.1 -0.1)">
       <use xlink:href="#DejaVuSans-48"/>
       <use x="63.623047" xlink:href="#DejaVuSans-46"/>
       <use x="95.410156" xlink:href="#DejaVuSans-49"/>
       <use x="159.033203" xlink:href="#DejaVuSans-48"/>
      </g>
     </g>
    </g>
    <g id="ytick_6">
     <g id="line2d_11">
      <g>
       <use style="stroke:#000000;stroke-width:0.8;" x="115.2" xlink:href="#mcd4882fb6e" y="182.017748"/>
      </g>
     </g>
     <g id="text_12">
      <!-- 0.15 -->
      <g transform="translate(85.934375 185.816967)scale(0.1 -0.1)">
       <use xlink:href="#DejaVuSans-48"/>
       <use x="63.623047" xlink:href="#DejaVuSans-46"/>
       <use x="95.410156" xlink:href="#DejaVuSans-49"/>
       <use x="159.033203" xlink:href="#DejaVuSans-53"/>
      </g>
     </g>
    </g>
    <g id="ytick_7">
     <g id="line2d_12">
      <g>
       <use style="stroke:#000000;stroke-width:0.8;" x="115.2" xlink:href="#mcd4882fb6e" y="158.687873"/>
      </g>
     </g>
     <g id="text_13">
      <!-- 0.20 -->
      <defs>
       <path d="M 19.1875 8.296875 
L 53.609375 8.296875 
L 53.609375 0 
L 7.328125 0 
L 7.328125 8.296875 
Q 12.9375 14.109375 22.625 23.890625 
Q 32.328125 33.6875 34.8125 36.53125 
Q 39.546875 41.84375 41.421875 45.53125 
Q 43.3125 49.21875 43.3125 52.78125 
Q 43.3125 58.59375 39.234375 62.25 
Q 35.15625 65.921875 28.609375 65.921875 
Q 23.96875 65.921875 18.8125 64.3125 
Q 13.671875 62.703125 7.8125 59.421875 
L 7.8125 69.390625 
Q 13.765625 71.78125 18.9375 73 
Q 24.125 74.21875 28.421875 74.21875 
Q 39.75 74.21875 46.484375 68.546875 
Q 53.21875 62.890625 53.21875 53.421875 
Q 53.21875 48.921875 51.53125 44.890625 
Q 49.859375 40.875 45.40625 35.40625 
Q 44.1875 33.984375 37.640625 27.21875 
Q 31.109375 20.453125 19.1875 8.296875 
z
" id="DejaVuSans-50"/>
      </defs>
      <g transform="translate(85.934375 162.487092)scale(0.1 -0.1)">
       <use xlink:href="#DejaVuSans-48"/>
       <use x="63.623047" xlink:href="#DejaVuSans-46"/>
       <use x="95.410156" xlink:href="#DejaVuSans-50"/>
       <use x="159.033203" xlink:href="#DejaVuSans-48"/>
      </g>
     </g>
    </g>
    <g id="ytick_8">
     <g id="line2d_13">
      <g>
       <use style="stroke:#000000;stroke-width:0.8;" x="115.2" xlink:href="#mcd4882fb6e" y="135.357998"/>
      </g>
     </g>
     <g id="text_14">
      <!-- 0.25 -->
      <g transform="translate(85.934375 139.157217)scale(0.1 -0.1)">
       <use xlink:href="#DejaVuSans-48"/>
       <use x="63.623047" xlink:href="#DejaVuSans-46"/>
       <use x="95.410156" xlink:href="#DejaVuSans-50"/>
       <use x="159.033203" xlink:href="#DejaVuSans-53"/>
      </g>
     </g>
    </g>
    <g id="ytick_9">
     <g id="line2d_14">
      <g>
       <use style="stroke:#000000;stroke-width:0.8;" x="115.2" xlink:href="#mcd4882fb6e" y="112.028123"/>
      </g>
     </g>
     <g id="text_15">
      <!-- 0.30 -->
      <defs>
       <path d="M 40.578125 39.3125 
Q 47.65625 37.796875 51.625 33 
Q 55.609375 28.21875 55.609375 21.1875 
Q 55.609375 10.40625 48.1875 4.484375 
Q 40.765625 -1.421875 27.09375 -1.421875 
Q 22.515625 -1.421875 17.65625 -0.515625 
Q 12.796875 0.390625 7.625 2.203125 
L 7.625 11.71875 
Q 11.71875 9.328125 16.59375 8.109375 
Q 21.484375 6.890625 26.8125 6.890625 
Q 36.078125 6.890625 40.9375 10.546875 
Q 45.796875 14.203125 45.796875 21.1875 
Q 45.796875 27.640625 41.28125 31.265625 
Q 36.765625 34.90625 28.71875 34.90625 
L 20.21875 34.90625 
L 20.21875 43.015625 
L 29.109375 43.015625 
Q 36.375 43.015625 40.234375 45.921875 
Q 44.09375 48.828125 44.09375 54.296875 
Q 44.09375 59.90625 40.109375 62.90625 
Q 36.140625 65.921875 28.71875 65.921875 
Q 24.65625 65.921875 20.015625 65.03125 
Q 15.375 64.15625 9.8125 62.3125 
L 9.8125 71.09375 
Q 15.4375 72.65625 20.34375 73.4375 
Q 25.25 74.21875 29.59375 74.21875 
Q 40.828125 74.21875 47.359375 69.109375 
Q 53.90625 64.015625 53.90625 55.328125 
Q 53.90625 49.265625 50.4375 45.09375 
Q 46.96875 40.921875 40.578125 39.3125 
z
" id="DejaVuSans-51"/>
      </defs>
      <g transform="translate(85.934375 115.827341)scale(0.1 -0.1)">
       <use xlink:href="#DejaVuSans-48"/>
       <use x="63.623047" xlink:href="#DejaVuSans-46"/>
       <use x="95.410156" xlink:href="#DejaVuSans-51"/>
       <use x="159.033203" xlink:href="#DejaVuSans-48"/>
      </g>
     </g>
    </g>
    <g id="text_16">
     <!-- solution u(x,t) -->
     <defs>
      <path d="M 44.28125 53.078125 
L 44.28125 44.578125 
Q 40.484375 46.53125 36.375 47.5 
Q 32.28125 48.484375 27.875 48.484375 
Q 21.1875 48.484375 17.84375 46.4375 
Q 14.5 44.390625 14.5 40.28125 
Q 14.5 37.15625 16.890625 35.375 
Q 19.28125 33.59375 26.515625 31.984375 
L 29.59375 31.296875 
Q 39.15625 29.25 43.1875 25.515625 
Q 47.21875 21.78125 47.21875 15.09375 
Q 47.21875 7.46875 41.1875 3.015625 
Q 35.15625 -1.421875 24.609375 -1.421875 
Q 20.21875 -1.421875 15.453125 -0.5625 
Q 10.6875 0.296875 5.421875 2 
L 5.421875 11.28125 
Q 10.40625 8.6875 15.234375 7.390625 
Q 20.0625 6.109375 24.8125 6.109375 
Q 31.15625 6.109375 34.5625 8.28125 
Q 37.984375 10.453125 37.984375 14.40625 
Q 37.984375 18.0625 35.515625 20.015625 
Q 33.0625 21.96875 24.703125 23.78125 
L 21.578125 24.515625 
Q 13.234375 26.265625 9.515625 29.90625 
Q 5.8125 33.546875 5.8125 39.890625 
Q 5.8125 47.609375 11.28125 51.796875 
Q 16.75 56 26.8125 56 
Q 31.78125 56 36.171875 55.265625 
Q 40.578125 54.546875 44.28125 53.078125 
z
" id="DejaVuSans-115"/>
      <path d="M 30.609375 48.390625 
Q 23.390625 48.390625 19.1875 42.75 
Q 14.984375 37.109375 14.984375 27.296875 
Q 14.984375 17.484375 19.15625 11.84375 
Q 23.34375 6.203125 30.609375 6.203125 
Q 37.796875 6.203125 41.984375 11.859375 
Q 46.1875 17.53125 46.1875 27.296875 
Q 46.1875 37.015625 41.984375 42.703125 
Q 37.796875 48.390625 30.609375 48.390625 
z
M 30.609375 56 
Q 42.328125 56 49.015625 48.375 
Q 55.71875 40.765625 55.71875 27.296875 
Q 55.71875 13.875 49.015625 6.21875 
Q 42.328125 -1.421875 30.609375 -1.421875 
Q 18.84375 -1.421875 12.171875 6.21875 
Q 5.515625 13.875 5.515625 27.296875 
Q 5.515625 40.765625 12.171875 48.375 
Q 18.84375 56 30.609375 56 
z
" id="DejaVuSans-111"/>
      <path d="M 9.421875 75.984375 
L 18.40625 75.984375 
L 18.40625 0 
L 9.421875 0 
z
" id="DejaVuSans-108"/>
      <path d="M 8.5 21.578125 
L 8.5 54.6875 
L 17.484375 54.6875 
L 17.484375 21.921875 
Q 17.484375 14.15625 20.5 10.265625 
Q 23.53125 6.390625 29.59375 6.390625 
Q 36.859375 6.390625 41.078125 11.03125 
Q 45.3125 15.671875 45.3125 23.6875 
L 45.3125 54.6875 
L 54.296875 54.6875 
L 54.296875 0 
L 45.3125 0 
L 45.3125 8.40625 
Q 42.046875 3.421875 37.71875 1 
Q 33.40625 -1.421875 27.6875 -1.421875 
Q 18.265625 -1.421875 13.375 4.4375 
Q 8.5 10.296875 8.5 21.578125 
z
M 31.109375 56 
z
" id="DejaVuSans-117"/>
      <path d="M 18.3125 70.21875 
L 18.3125 54.6875 
L 36.8125 54.6875 
L 36.8125 47.703125 
L 18.3125 47.703125 
L 18.3125 18.015625 
Q 18.3125 11.328125 20.140625 9.421875 
Q 21.96875 7.515625 27.59375 7.515625 
L 36.8125 7.515625 
L 36.8125 0 
L 27.59375 0 
Q 17.1875 0 13.234375 3.875 
Q 9.28125 7.765625 9.28125 18.015625 
L 9.28125 47.703125 
L 2.6875 47.703125 
L 2.6875 54.6875 
L 9.28125 54.6875 
L 9.28125 70.21875 
z
" id="DejaVuSans-116"/>
      <path d="M 9.421875 54.6875 
L 18.40625 54.6875 
L 18.40625 0 
L 9.421875 0 
z
M 9.421875 75.984375 
L 18.40625 75.984375 
L 18.40625 64.59375 
L 9.421875 64.59375 
z
" id="DejaVuSans-105"/>
      <path d="M 54.890625 33.015625 
L 54.890625 0 
L 45.90625 0 
L 45.90625 32.71875 
Q 45.90625 40.484375 42.875 44.328125 
Q 39.84375 48.1875 33.796875 48.1875 
Q 26.515625 48.1875 22.3125 43.546875 
Q 18.109375 38.921875 18.109375 30.90625 
L 18.109375 0 
L 9.078125 0 
L 9.078125 54.6875 
L 18.109375 54.6875 
L 18.109375 46.1875 
Q 21.34375 51.125 25.703125 53.5625 
Q 30.078125 56 35.796875 56 
Q 45.21875 56 50.046875 50.171875 
Q 54.890625 44.34375 54.890625 33.015625 
z
" id="DejaVuSans-110"/>
      <path id="DejaVuSans-32"/>
      <path d="M 31 75.875 
Q 24.46875 64.65625 21.28125 53.65625 
Q 18.109375 42.671875 18.109375 31.390625 
Q 18.109375 20.125 21.3125 9.0625 
Q 24.515625 -2 31 -13.1875 
L 23.1875 -13.1875 
Q 15.875 -1.703125 12.234375 9.375 
Q 8.59375 20.453125 8.59375 31.390625 
Q 8.59375 42.28125 12.203125 53.3125 
Q 15.828125 64.359375 23.1875 75.875 
z
" id="DejaVuSans-40"/>
      <path d="M 11.71875 12.40625 
L 22.015625 12.40625 
L 22.015625 4 
L 14.015625 -11.625 
L 7.71875 -11.625 
L 11.71875 4 
z
" id="DejaVuSans-44"/>
      <path d="M 8.015625 75.875 
L 15.828125 75.875 
Q 23.140625 64.359375 26.78125 53.3125 
Q 30.421875 42.28125 30.421875 31.390625 
Q 30.421875 20.453125 26.78125 9.375 
Q 23.140625 -1.703125 15.828125 -13.1875 
L 8.015625 -13.1875 
Q 14.5 -2 17.703125 9.0625 
Q 20.90625 20.125 20.90625 31.390625 
Q 20.90625 42.671875 17.703125 53.65625 
Q 14.5 64.65625 8.015625 75.875 
z
" id="DejaVuSans-41"/>
     </defs>
     <g transform="translate(71.475 249.916835)rotate(-90)scale(0.1 -0.1)">
      <use xlink:href="#DejaVuSans-115"/>
      <use x="52.099609" xlink:href="#DejaVuSans-111"/>
      <use x="113.28125" xlink:href="#DejaVuSans-108"/>
      <use x="141.064453" xlink:href="#DejaVuSans-117"/>
      <use x="204.443359" xlink:href="#DejaVuSans-116"/>
      <use x="243.652344" xlink:href="#DejaVuSans-105"/>
      <use x="271.435547" xlink:href="#DejaVuSans-111"/>
      <use x="332.617188" xlink:href="#DejaVuSans-110"/>
      <use x="395.996094" xlink:href="#DejaVuSans-32"/>
      <use x="427.783203" xlink:href="#DejaVuSans-117"/>
      <use x="491.162109" xlink:href="#DejaVuSans-40"/>
      <use x="530.175781" xlink:href="#DejaVuSans-120"/>
      <use x="589.355469" xlink:href="#DejaVuSans-44"/>
      <use x="621.142578" xlink:href="#DejaVuSans-116"/>
      <use x="660.351562" xlink:href="#DejaVuSans-41"/>
     </g>
    </g>
   </g>
   <g id="line2d_15">
    <path clip-path="url(#p4814f6bfde)" d="M 147.665455 252.273933 
L 152.748109 252.255987 
L 159.101427 252.003361 
L 167.996072 251.615043 
L 171.808063 251.659886 
L 175.620053 251.903235 
L 185.785362 252.753924 
L 188.326689 252.70475 
L 190.868016 252.464698 
L 194.680007 251.794656 
L 199.762661 250.780969 
L 202.303989 250.515968 
L 204.845316 250.577795 
L 207.386643 251.027205 
L 209.92797 251.837115 
L 216.281288 254.381849 
L 217.551952 254.727602 
L 218.822615 254.93819 
L 220.093279 254.984461 
L 221.363942 254.84418 
L 222.634606 254.504292 
L 223.90527 253.96289 
L 225.175933 253.230746 
L 227.71726 251.305287 
L 231.529251 248.0152 
L 232.799915 247.078403 
L 234.070578 246.344657 
L 235.341242 245.882976 
L 236.611905 245.751986 
L 237.882569 245.994983 
L 239.153233 246.635618 
L 240.423896 247.674532 
L 241.69456 249.08723 
L 242.965223 250.82336 
L 245.50655 254.941129 
L 248.047878 259.171473 
L 249.318541 260.994524 
L 250.589205 262.432577 
L 251.859868 263.348217 
L 253.130532 263.618376 
L 254.401196 263.143594 
L 255.671859 261.857658 
L 256.942523 259.737082 
L 258.213186 256.809546 
L 259.48385 253.160209 
L 262.025177 244.33684 
L 264.566504 235.084752 
L 265.837168 231.03721 
L 267.107831 227.790065 
L 268.378495 225.62624 
L 269.649159 224.777237 
L 270.919822 225.402142 
L 272.190486 227.571878 
L 273.461149 231.260267 
L 274.731813 236.3426 
L 276.002476 242.601384 
L 278.543804 257.38802 
L 281.085131 272.542836 
L 282.355794 279.136821 
L 283.626458 284.44893 
L 284.897122 288.013594 
L 286.167785 289.386846 
L 287.438449 288.169587 
L 288.709112 284.041262 
L 289.979776 276.804223 
L 291.250439 266.434787 
L 292.521103 253.132165 
L 293.791767 237.352806 
L 298.874421 166.955415 
L 300.145085 153.109539 
L 301.415748 142.927597 
L 302.686412 137.176342 
L 303.957075 136.322649 
L 305.227739 140.496141 
L 306.498402 149.477214 
L 307.769066 162.710761 
L 309.03973 179.347896 
L 311.581057 218.420968 
L 314.122384 257.269916 
L 315.393048 273.937457 
L 316.663711 287.706092 
L 317.934375 298.044259 
L 319.205038 304.600955 
L 320.475702 307.161978 
L 321.746365 305.613708 
L 323.017029 299.930595 
L 324.287693 290.193244 
L 325.558356 276.632504 
L 326.82902 259.684338 
L 328.099683 240.033694 
L 333.182338 156.172993 
L 334.453001 140.306387 
L 335.723665 128.8144 
L 336.994328 122.459551 
L 338.264992 121.666291 
L 339.535656 126.49588 
L 340.806319 136.642563 
L 342.076983 151.450264 
L 343.347646 169.954512 
L 345.888973 213.119508 
L 348.430301 255.673084 
L 349.700964 273.7927 
L 350.971628 288.677141 
L 352.242291 299.789235 
L 353.512955 306.802202 
L 354.783619 309.545198 
L 356.054282 307.956261 
L 357.324946 302.061386 
L 358.595609 291.98788 
L 359.866273 278.007177 
L 361.136936 260.590695 
L 363.678264 218.575989 
L 366.219591 174.514212 
L 367.490254 155.030194 
L 368.760918 138.958591 
L 370.031582 127.349287 
L 371.302245 120.959766 
L 372.572909 120.205262 
L 373.843572 125.135503 
L 375.114236 135.43209 
L 376.384899 150.425679 
L 377.655563 169.137972 
L 380.19689 212.728843 
L 382.738217 255.635738 
L 384.008881 273.882106 
L 385.279545 288.855258 
L 386.550208 300.019022 
L 387.820872 307.050307 
L 389.091535 309.783533 
L 390.362199 308.162581 
L 391.632862 302.219234 
L 392.903526 292.086265 
L 394.17419 278.040278 
L 395.444853 260.557679 
L 397.98618 218.427241 
L 400.527508 174.297894 
L 401.798171 154.803909 
L 403.068835 138.738401 
L 404.339498 127.149659 
L 405.610162 120.792548 
L 406.880825 120.079059 
L 408.151489 125.055378 
L 409.422153 135.399512 
L 410.692816 150.438654 
L 411.96348 169.191366 
L 414.504807 212.83808 
L 417.046134 255.760161 
L 418.316798 273.999589 
L 419.587461 288.95787 
L 420.858125 300.100476 
L 422.128788 307.105884 
L 423.399452 309.809869 
L 424.670116 308.15748 
L 425.940779 302.181632 
L 427.211443 292.016394 
L 428.482106 277.939983 
L 429.75277 260.43076 
L 432.294097 218.266954 
L 434.835424 174.141758 
L 436.106088 154.665271 
L 437.376751 138.626417 
L 438.647415 127.071645 
L 439.918079 120.753465 
L 441.188742 120.081223 
L 442.459406 125.098354 
L 443.730069 135.480157 
L 445.000733 150.551316 
L 446.271397 169.328288 
L 448.812724 212.995202 
L 451.354051 255.899933 
L 452.624714 274.11957 
L 453.895378 289.053031 
L 455.166042 300.167493 
L 456.436705 307.142792 
L 457.707369 309.815678 
L 458.978032 308.131918 
L 460.248696 302.125113 
L 461.51936 291.930233 
L 462.790023 277.82677 
L 464.060687 260.294747 
L 466.602014 218.105584 
L 469.143341 173.991552 
L 470.414005 154.535258 
L 471.684668 138.52508 
L 472.955332 127.005602 
L 474.225995 120.726997 
L 475.496659 120.096022 
L 476.767323 125.15344 
L 478.037986 135.571924 
L 479.30865 150.673743 
L 480.579313 169.473351 
L 483.12064 213.156872 
L 485.661968 256.040969 
L 486.932631 274.239519 
L 488.203295 289.147157 
L 489.473958 300.23277 
L 490.744622 307.177533 
L 492.015286 309.819137 
L 493.285949 308.104027 
L 494.556613 302.066454 
L 495.827276 291.842253 
L 497.09794 277.712164 
L 498.368603 260.157852 
L 500.909931 217.944484 
L 503.451258 173.842733 
L 504.721921 154.407099 
L 505.992585 138.425967 
L 507.263249 126.942041 
L 508.533912 120.703149 
L 509.804576 120.113456 
L 511.075239 125.211049 
L 512.345903 135.665982 
L 513.616566 150.798114 
L 514.88723 169.619911 
L 517.428557 213.318941 
L 519.969884 256.181244 
L 521.240548 274.358182 
L 522.511212 289.239549 
L 523.781875 300.295966 
L 525.052539 307.209973 
L 526.323202 309.820235 
L 527.593866 308.07391 
L 528.864529 302.005937 
L 530.135193 291.753057 
L 531.405857 277.59728 
L 532.67652 260.021912 
L 535.217847 217.78754 
L 537.759175 173.701673 
L 539.029838 154.288366 
L 540.300502 138.337706 
L 541.571165 126.890409 
L 542.841829 120.691865 
L 544.112492 120.14356 
L 545.383156 125.280827 
L 546.65382 135.771038 
L 547.924483 150.931616 
L 549.195147 169.773048 
L 551.736474 213.480777 
L 554.277801 256.313302 
L 555.548465 274.464739 
L 556.819128 289.316341 
L 558.089792 300.340744 
L 559.360455 307.222181 
L 560.631119 309.800671 
L 561.901783 308.024525 
L 563.172446 301.929827 
L 564.44311 291.654622 
L 565.713773 277.482447 
L 566.984437 259.898256 
L 569.525764 217.674592 
L 572.067091 173.64034 
L 573.337755 154.26595 
L 574.608418 138.359967 
L 575.879082 126.960067 
L 577.149746 120.808231 
L 578.420409 120.302365 
L 579.691073 125.474231 
L 580.961736 135.987864 
L 582.2324 151.157901 
L 583.503064 169.992975 
L 586.044391 213.63979 
L 588.585718 256.360503 
L 589.856381 274.446296 
L 591.127045 289.232007 
L 592.397709 300.19523 
L 593.668372 307.025317 
L 594.939036 309.567682 
L 596.209699 307.77636 
L 597.480363 301.69331 
L 598.751027 291.462042 
L 600.02169 277.370226 
L 601.292354 259.904498 
L 603.833681 218.021162 
L 606.375008 174.409508 
L 607.645672 155.246136 
L 608.916335 139.532125 
L 610.186999 128.291211 
L 611.457662 122.251983 
L 612.728326 121.799544 
L 613.99899 126.953802 
L 615.269653 137.368926 
L 616.540317 152.353419 
L 617.81098 170.915512 
L 622.893635 255.560527 
L 624.164298 273.171748 
L 625.434962 287.523951 
L 626.705625 298.129286 
L 627.976289 304.716427 
L 629.246952 307.176148 
L 630.517616 305.51324 
L 631.78828 299.821894 
L 633.058943 290.291685 
L 634.329607 277.239692 
L 635.60027 261.154301 
L 638.141598 222.87829 
L 640.682925 183.365018 
L 641.953588 166.11636 
L 643.224252 152.051436 
L 644.494915 142.075265 
L 645.765579 136.812249 
L 647.036243 136.557978 
L 648.306906 141.259572 
L 649.57757 150.522104 
L 650.848233 163.640311 
L 652.118897 179.656466 
L 657.201551 249.849282 
L 658.472215 263.745778 
L 659.742878 274.78676 
L 661.013542 282.718553 
L 662.284206 287.519664 
L 663.554869 289.353912 
L 664.825533 288.518929 
L 666.096196 285.399807 
L 667.36686 280.432959 
L 668.637524 274.080756 
L 671.178851 259.101081 
L 673.720178 244.109211 
L 674.990841 237.628956 
L 676.261505 232.265866 
L 677.532169 228.256469 
L 678.802832 225.746631 
L 680.073496 224.784363 
L 681.344159 225.319614 
L 682.614823 227.211578 
L 683.885487 230.243046 
L 685.15615 234.140423 
L 687.697477 243.299033 
L 690.238804 252.273018 
L 691.509468 256.063845 
L 692.780132 259.159714 
L 694.050795 261.462275 
L 695.321459 262.931636 
L 696.592122 263.580686 
L 697.862786 263.467024 
L 699.13345 262.68362 
L 700.404113 261.349159 
L 701.674777 259.598662 
L 704.216104 255.419637 
L 706.757431 251.24204 
L 708.028095 249.443989 
L 709.298758 247.954854 
L 710.569422 246.830634 
L 711.840085 246.101505 
L 713.110749 245.772225 
L 714.381413 245.823961 
L 715.652076 246.217401 
L 716.92274 246.896884 
L 718.193403 247.795243 
L 722.005394 251.066758 
L 724.546721 253.046068 
L 725.817385 253.817423 
L 727.088048 254.402213 
L 728.358712 254.786731 
L 729.629376 254.970202 
L 730.900039 254.963385 
L 732.170703 254.786679 
L 734.71203 254.04 
L 742.336011 251.10016 
L 744.877339 250.607941 
L 747.418666 250.505039 
L 749.959993 250.739135 
L 753.771984 251.46431 
L 757.583974 252.229129 
L 760.125302 252.581074 
L 762.666629 252.745953 
L 765.207956 252.726108 
L 769.019947 252.443918 
L 776.643928 251.73587 
L 780.455919 251.609821 
L 785.538573 251.721923 
L 796.974545 252.249701 
L 796.974545 252.249701 
" style="fill:none;stroke:#1f77b4;stroke-linecap:square;stroke-width:1.5;"/>
   </g>
   <g id="patch_3">
    <path d="M 115.2 319.307294 
L 115.2 110.592 
" style="fill:none;stroke:#000000;stroke-linecap:square;stroke-linejoin:miter;stroke-width:0.8;"/>
   </g>
   <g id="patch_4">
    <path d="M 829.44 319.307294 
L 829.44 110.592 
" style="fill:none;stroke:#000000;stroke-linecap:square;stroke-linejoin:miter;stroke-width:0.8;"/>
   </g>
   <g id="patch_5">
    <path d="M 115.2 319.307294 
L 829.44 319.307294 
" style="fill:none;stroke:#000000;stroke-linecap:square;stroke-linejoin:miter;stroke-width:0.8;"/>
   </g>
   <g id="patch_6">
    <path d="M 115.2 110.592 
L 829.44 110.592 
" style="fill:none;stroke:#000000;stroke-linecap:square;stroke-linejoin:miter;stroke-width:0.8;"/>
   </g>
  </g>
  <g id="axes_2">
   <g id="patch_7">
    <path d="M 115.2 569.765647 
L 829.44 569.765647 
L 829.44 361.050353 
L 115.2 361.050353 
z
" style="fill:#ffffff;"/>
   </g>
   <g id="matplotlib.axis_3">
    <g id="xtick_6">
     <g id="line2d_16">
      <g>
       <use style="stroke:#000000;stroke-width:0.8;" x="147.665455" xlink:href="#mfb90e0ae82" y="569.765647"/>
      </g>
     </g>
     <g id="text_17">
      <!-- 0 -->
      <g transform="translate(144.484205 584.364085)scale(0.1 -0.1)">
       <use xlink:href="#DejaVuSans-48"/>
      </g>
     </g>
    </g>
    <g id="xtick_7">
     <g id="line2d_17">
      <g>
       <use style="stroke:#000000;stroke-width:0.8;" x="244.547409" xlink:href="#mfb90e0ae82" y="569.765647"/>
      </g>
     </g>
     <g id="text_18">
      <!-- 1 -->
      <g transform="translate(241.366159 584.364085)scale(0.1 -0.1)">
       <use xlink:href="#DejaVuSans-49"/>
      </g>
     </g>
    </g>
    <g id="xtick_8">
     <g id="line2d_18">
      <g>
       <use style="stroke:#000000;stroke-width:0.8;" x="341.429363" xlink:href="#mfb90e0ae82" y="569.765647"/>
      </g>
     </g>
     <g id="text_19">
      <!-- 2 -->
      <g transform="translate(338.248113 584.364085)scale(0.1 -0.1)">
       <use xlink:href="#DejaVuSans-50"/>
      </g>
     </g>
    </g>
    <g id="xtick_9">
     <g id="line2d_19">
      <g>
       <use style="stroke:#000000;stroke-width:0.8;" x="438.311318" xlink:href="#mfb90e0ae82" y="569.765647"/>
      </g>
     </g>
     <g id="text_20">
      <!-- 3 -->
      <g transform="translate(435.130068 584.364085)scale(0.1 -0.1)">
       <use xlink:href="#DejaVuSans-51"/>
      </g>
     </g>
    </g>
    <g id="xtick_10">
     <g id="line2d_20">
      <g>
       <use style="stroke:#000000;stroke-width:0.8;" x="535.193272" xlink:href="#mfb90e0ae82" y="569.765647"/>
      </g>
     </g>
     <g id="text_21">
      <!-- 4 -->
      <defs>
       <path d="M 37.796875 64.3125 
L 12.890625 25.390625 
L 37.796875 25.390625 
z
M 35.203125 72.90625 
L 47.609375 72.90625 
L 47.609375 25.390625 
L 58.015625 25.390625 
L 58.015625 17.1875 
L 47.609375 17.1875 
L 47.609375 0 
L 37.796875 0 
L 37.796875 17.1875 
L 4.890625 17.1875 
L 4.890625 26.703125 
z
" id="DejaVuSans-52"/>
      </defs>
      <g transform="translate(532.012022 584.364085)scale(0.1 -0.1)">
       <use xlink:href="#DejaVuSans-52"/>
      </g>
     </g>
    </g>
    <g id="xtick_11">
     <g id="line2d_21">
      <g>
       <use style="stroke:#000000;stroke-width:0.8;" x="632.075227" xlink:href="#mfb90e0ae82" y="569.765647"/>
      </g>
     </g>
     <g id="text_22">
      <!-- 5 -->
      <g transform="translate(628.893977 584.364085)scale(0.1 -0.1)">
       <use xlink:href="#DejaVuSans-53"/>
      </g>
     </g>
    </g>
    <g id="xtick_12">
     <g id="line2d_22">
      <g>
       <use style="stroke:#000000;stroke-width:0.8;" x="728.957181" xlink:href="#mfb90e0ae82" y="569.765647"/>
      </g>
     </g>
     <g id="text_23">
      <!-- 6 -->
      <defs>
       <path d="M 33.015625 40.375 
Q 26.375 40.375 22.484375 35.828125 
Q 18.609375 31.296875 18.609375 23.390625 
Q 18.609375 15.53125 22.484375 10.953125 
Q 26.375 6.390625 33.015625 6.390625 
Q 39.65625 6.390625 43.53125 10.953125 
Q 47.40625 15.53125 47.40625 23.390625 
Q 47.40625 31.296875 43.53125 35.828125 
Q 39.65625 40.375 33.015625 40.375 
z
M 52.59375 71.296875 
L 52.59375 62.3125 
Q 48.875 64.0625 45.09375 64.984375 
Q 41.3125 65.921875 37.59375 65.921875 
Q 27.828125 65.921875 22.671875 59.328125 
Q 17.53125 52.734375 16.796875 39.40625 
Q 19.671875 43.65625 24.015625 45.921875 
Q 28.375 48.1875 33.59375 48.1875 
Q 44.578125 48.1875 50.953125 41.515625 
Q 57.328125 34.859375 57.328125 23.390625 
Q 57.328125 12.15625 50.6875 5.359375 
Q 44.046875 -1.421875 33.015625 -1.421875 
Q 20.359375 -1.421875 13.671875 8.265625 
Q 6.984375 17.96875 6.984375 36.375 
Q 6.984375 53.65625 15.1875 63.9375 
Q 23.390625 74.21875 37.203125 74.21875 
Q 40.921875 74.21875 44.703125 73.484375 
Q 48.484375 72.75 52.59375 71.296875 
z
" id="DejaVuSans-54"/>
      </defs>
      <g transform="translate(725.775931 584.364085)scale(0.1 -0.1)">
       <use xlink:href="#DejaVuSans-54"/>
      </g>
     </g>
    </g>
    <g id="xtick_13">
     <g id="line2d_23">
      <g>
       <use style="stroke:#000000;stroke-width:0.8;" x="825.839136" xlink:href="#mfb90e0ae82" y="569.765647"/>
      </g>
     </g>
     <g id="text_24">
      <!-- 7 -->
      <defs>
       <path d="M 8.203125 72.90625 
L 55.078125 72.90625 
L 55.078125 68.703125 
L 28.609375 0 
L 18.3125 0 
L 43.21875 64.59375 
L 8.203125 64.59375 
z
" id="DejaVuSans-55"/>
      </defs>
      <g transform="translate(822.657886 584.364085)scale(0.1 -0.1)">
       <use xlink:href="#DejaVuSans-55"/>
      </g>
     </g>
    </g>
    <g id="text_25">
     <!-- k -->
     <defs>
      <path d="M 9.078125 75.984375 
L 18.109375 75.984375 
L 18.109375 31.109375 
L 44.921875 54.6875 
L 56.390625 54.6875 
L 27.390625 29.109375 
L 57.625 0 
L 45.90625 0 
L 18.109375 26.703125 
L 18.109375 0 
L 9.078125 0 
z
" id="DejaVuSans-107"/>
     </defs>
     <g transform="translate(469.424688 598.04221)scale(0.1 -0.1)">
      <use xlink:href="#DejaVuSans-107"/>
     </g>
    </g>
   </g>
   <g id="matplotlib.axis_4">
    <g id="ytick_10">
     <g id="line2d_24">
      <g>
       <use style="stroke:#000000;stroke-width:0.8;" x="115.2" xlink:href="#mcd4882fb6e" y="560.278588"/>
      </g>
     </g>
     <g id="text_26">
      <!-- 0 -->
      <g transform="translate(101.8375 564.077807)scale(0.1 -0.1)">
       <use xlink:href="#DejaVuSans-48"/>
      </g>
     </g>
    </g>
    <g id="ytick_11">
     <g id="line2d_25">
      <g>
       <use style="stroke:#000000;stroke-width:0.8;" x="115.2" xlink:href="#mcd4882fb6e" y="530.005514"/>
      </g>
     </g>
     <g id="text_27">
      <!-- 5 -->
      <g transform="translate(101.8375 533.804732)scale(0.1 -0.1)">
       <use xlink:href="#DejaVuSans-53"/>
      </g>
     </g>
    </g>
    <g id="ytick_12">
     <g id="line2d_26">
      <g>
       <use style="stroke:#000000;stroke-width:0.8;" x="115.2" xlink:href="#mcd4882fb6e" y="499.732439"/>
      </g>
     </g>
     <g id="text_28">
      <!-- 10 -->
      <g transform="translate(95.475 503.531658)scale(0.1 -0.1)">
       <use xlink:href="#DejaVuSans-49"/>
       <use x="63.623047" xlink:href="#DejaVuSans-48"/>
      </g>
     </g>
    </g>
    <g id="ytick_13">
     <g id="line2d_27">
      <g>
       <use style="stroke:#000000;stroke-width:0.8;" x="115.2" xlink:href="#mcd4882fb6e" y="469.459364"/>
      </g>
     </g>
     <g id="text_29">
      <!-- 15 -->
      <g transform="translate(95.475 473.258583)scale(0.1 -0.1)">
       <use xlink:href="#DejaVuSans-49"/>
       <use x="63.623047" xlink:href="#DejaVuSans-53"/>
      </g>
     </g>
    </g>
    <g id="ytick_14">
     <g id="line2d_28">
      <g>
       <use style="stroke:#000000;stroke-width:0.8;" x="115.2" xlink:href="#mcd4882fb6e" y="439.18629"/>
      </g>
     </g>
     <g id="text_30">
      <!-- 20 -->
      <g transform="translate(95.475 442.985508)scale(0.1 -0.1)">
       <use xlink:href="#DejaVuSans-50"/>
       <use x="63.623047" xlink:href="#DejaVuSans-48"/>
      </g>
     </g>
    </g>
    <g id="ytick_15">
     <g id="line2d_29">
      <g>
       <use style="stroke:#000000;stroke-width:0.8;" x="115.2" xlink:href="#mcd4882fb6e" y="408.913215"/>
      </g>
     </g>
     <g id="text_31">
      <!-- 25 -->
      <g transform="translate(95.475 412.712434)scale(0.1 -0.1)">
       <use xlink:href="#DejaVuSans-50"/>
       <use x="63.623047" xlink:href="#DejaVuSans-53"/>
      </g>
     </g>
    </g>
    <g id="ytick_16">
     <g id="line2d_30">
      <g>
       <use style="stroke:#000000;stroke-width:0.8;" x="115.2" xlink:href="#mcd4882fb6e" y="378.64014"/>
      </g>
     </g>
     <g id="text_32">
      <!-- 30 -->
      <g transform="translate(95.475 382.439359)scale(0.1 -0.1)">
       <use xlink:href="#DejaVuSans-51"/>
       <use x="63.623047" xlink:href="#DejaVuSans-48"/>
      </g>
     </g>
    </g>
    <g id="text_33">
     <!-- fourier spectrum u(k,t) -->
     <defs>
      <path d="M 37.109375 75.984375 
L 37.109375 68.5 
L 28.515625 68.5 
Q 23.6875 68.5 21.796875 66.546875 
Q 19.921875 64.59375 19.921875 59.515625 
L 19.921875 54.6875 
L 34.71875 54.6875 
L 34.71875 47.703125 
L 19.921875 47.703125 
L 19.921875 0 
L 10.890625 0 
L 10.890625 47.703125 
L 2.296875 47.703125 
L 2.296875 54.6875 
L 10.890625 54.6875 
L 10.890625 58.5 
Q 10.890625 67.625 15.140625 71.796875 
Q 19.390625 75.984375 28.609375 75.984375 
z
" id="DejaVuSans-102"/>
      <path d="M 41.109375 46.296875 
Q 39.59375 47.171875 37.8125 47.578125 
Q 36.03125 48 33.890625 48 
Q 26.265625 48 22.1875 43.046875 
Q 18.109375 38.09375 18.109375 28.8125 
L 18.109375 0 
L 9.078125 0 
L 9.078125 54.6875 
L 18.109375 54.6875 
L 18.109375 46.1875 
Q 20.953125 51.171875 25.484375 53.578125 
Q 30.03125 56 36.53125 56 
Q 37.453125 56 38.578125 55.875 
Q 39.703125 55.765625 41.0625 55.515625 
z
" id="DejaVuSans-114"/>
      <path d="M 56.203125 29.59375 
L 56.203125 25.203125 
L 14.890625 25.203125 
Q 15.484375 15.921875 20.484375 11.0625 
Q 25.484375 6.203125 34.421875 6.203125 
Q 39.59375 6.203125 44.453125 7.46875 
Q 49.3125 8.734375 54.109375 11.28125 
L 54.109375 2.78125 
Q 49.265625 0.734375 44.1875 -0.34375 
Q 39.109375 -1.421875 33.890625 -1.421875 
Q 20.796875 -1.421875 13.15625 6.1875 
Q 5.515625 13.8125 5.515625 26.8125 
Q 5.515625 40.234375 12.765625 48.109375 
Q 20.015625 56 32.328125 56 
Q 43.359375 56 49.78125 48.890625 
Q 56.203125 41.796875 56.203125 29.59375 
z
M 47.21875 32.234375 
Q 47.125 39.59375 43.09375 43.984375 
Q 39.0625 48.390625 32.421875 48.390625 
Q 24.90625 48.390625 20.390625 44.140625 
Q 15.875 39.890625 15.1875 32.171875 
z
" id="DejaVuSans-101"/>
      <path d="M 18.109375 8.203125 
L 18.109375 -20.796875 
L 9.078125 -20.796875 
L 9.078125 54.6875 
L 18.109375 54.6875 
L 18.109375 46.390625 
Q 20.953125 51.265625 25.265625 53.625 
Q 29.59375 56 35.59375 56 
Q 45.5625 56 51.78125 48.09375 
Q 58.015625 40.1875 58.015625 27.296875 
Q 58.015625 14.40625 51.78125 6.484375 
Q 45.5625 -1.421875 35.59375 -1.421875 
Q 29.59375 -1.421875 25.265625 0.953125 
Q 20.953125 3.328125 18.109375 8.203125 
z
M 48.6875 27.296875 
Q 48.6875 37.203125 44.609375 42.84375 
Q 40.53125 48.484375 33.40625 48.484375 
Q 26.265625 48.484375 22.1875 42.84375 
Q 18.109375 37.203125 18.109375 27.296875 
Q 18.109375 17.390625 22.1875 11.75 
Q 26.265625 6.109375 33.40625 6.109375 
Q 40.53125 6.109375 44.609375 11.75 
Q 48.6875 17.390625 48.6875 27.296875 
z
" id="DejaVuSans-112"/>
      <path d="M 48.78125 52.59375 
L 48.78125 44.1875 
Q 44.96875 46.296875 41.140625 47.34375 
Q 37.3125 48.390625 33.40625 48.390625 
Q 24.65625 48.390625 19.8125 42.84375 
Q 14.984375 37.3125 14.984375 27.296875 
Q 14.984375 17.28125 19.8125 11.734375 
Q 24.65625 6.203125 33.40625 6.203125 
Q 37.3125 6.203125 41.140625 7.25 
Q 44.96875 8.296875 48.78125 10.40625 
L 48.78125 2.09375 
Q 45.015625 0.34375 40.984375 -0.53125 
Q 36.96875 -1.421875 32.421875 -1.421875 
Q 20.0625 -1.421875 12.78125 6.34375 
Q 5.515625 14.109375 5.515625 27.296875 
Q 5.515625 40.671875 12.859375 48.328125 
Q 20.21875 56 33.015625 56 
Q 37.15625 56 41.109375 55.140625 
Q 45.0625 54.296875 48.78125 52.59375 
z
" id="DejaVuSans-99"/>
      <path d="M 52 44.1875 
Q 55.375 50.25 60.0625 53.125 
Q 64.75 56 71.09375 56 
Q 79.640625 56 84.28125 50.015625 
Q 88.921875 44.046875 88.921875 33.015625 
L 88.921875 0 
L 79.890625 0 
L 79.890625 32.71875 
Q 79.890625 40.578125 77.09375 44.375 
Q 74.3125 48.1875 68.609375 48.1875 
Q 61.625 48.1875 57.5625 43.546875 
Q 53.515625 38.921875 53.515625 30.90625 
L 53.515625 0 
L 44.484375 0 
L 44.484375 32.71875 
Q 44.484375 40.625 41.703125 44.40625 
Q 38.921875 48.1875 33.109375 48.1875 
Q 26.21875 48.1875 22.15625 43.53125 
Q 18.109375 38.875 18.109375 30.90625 
L 18.109375 0 
L 9.078125 0 
L 9.078125 54.6875 
L 18.109375 54.6875 
L 18.109375 46.1875 
Q 21.1875 51.21875 25.484375 53.609375 
Q 29.78125 56 35.6875 56 
Q 41.65625 56 45.828125 52.96875 
Q 50 49.953125 52 44.1875 
z
" id="DejaVuSans-109"/>
     </defs>
     <g transform="translate(89.395312 522.325188)rotate(-90)scale(0.1 -0.1)">
      <use xlink:href="#DejaVuSans-102"/>
      <use x="35.205078" xlink:href="#DejaVuSans-111"/>
      <use x="96.386719" xlink:href="#DejaVuSans-117"/>
      <use x="159.765625" xlink:href="#DejaVuSans-114"/>
      <use x="200.878906" xlink:href="#DejaVuSans-105"/>
      <use x="228.662109" xlink:href="#DejaVuSans-101"/>
      <use x="290.185547" xlink:href="#DejaVuSans-114"/>
      <use x="331.298828" xlink:href="#DejaVuSans-32"/>
      <use x="363.085938" xlink:href="#DejaVuSans-115"/>
      <use x="415.185547" xlink:href="#DejaVuSans-112"/>
      <use x="478.662109" xlink:href="#DejaVuSans-101"/>
      <use x="540.185547" xlink:href="#DejaVuSans-99"/>
      <use x="595.166016" xlink:href="#DejaVuSans-116"/>
      <use x="634.375" xlink:href="#DejaVuSans-114"/>
      <use x="675.488281" xlink:href="#DejaVuSans-117"/>
      <use x="738.867188" xlink:href="#DejaVuSans-109"/>
      <use x="836.279297" xlink:href="#DejaVuSans-32"/>
      <use x="868.066406" xlink:href="#DejaVuSans-117"/>
      <use x="931.445312" xlink:href="#DejaVuSans-40"/>
      <use x="970.458984" xlink:href="#DejaVuSans-107"/>
      <use x="1028.369141" xlink:href="#DejaVuSans-44"/>
      <use x="1060.15625" xlink:href="#DejaVuSans-116"/>
      <use x="1099.365234" xlink:href="#DejaVuSans-41"/>
     </g>
    </g>
   </g>
   <g id="line2d_31">
    <path clip-path="url(#p3e327bbb6a)" d="M 147.665455 430.490849 
L 150.201818 490.852643 
L 152.738182 544.583738 
L 155.274545 543.254467 
L 157.810909 547.070954 
L 160.347273 555.764426 
L 162.883636 549.98696 
L 165.42 558.980311 
L 167.956364 552.69648 
L 170.492727 555.405499 
L 173.029091 555.259827 
L 175.565455 552.19657 
L 178.101818 558.512776 
L 180.638182 548.090159 
L 183.174545 555.748883 
L 185.710909 542.124653 
L 188.247273 538.824637 
L 190.783636 535.212333 
L 193.32 458.504632 
L 195.856364 370.537412 
L 198.392727 476.240624 
L 200.929091 534.706702 
L 203.465455 548.213501 
L 206.001818 547.488705 
L 208.538182 559.931434 
L 211.074545 554.609325 
L 213.610909 558.517633 
L 216.147273 557.885602 
L 218.683636 558.377268 
L 221.22 559.4371 
L 223.756364 558.561446 
L 226.292727 560.230832 
L 228.829091 558.769525 
L 231.365455 559.522939 
L 233.901818 559.005991 
L 236.438182 558.667179 
L 238.974545 559.359652 
L 241.510909 555.92637 
L 244.047273 554.167118 
L 246.583636 557.936296 
L 249.12 559.678525 
L 251.656364 559.967761 
L 254.192727 560.014101 
L 256.729091 560.26207 
L 259.265455 560.183304 
L 264.338182 560.250836 
L 274.483636 560.252888 
L 287.165455 560.270713 
L 289.701818 559.995041 
L 292.238182 559.888291 
L 297.310909 560.246125 
L 322.674545 560.278095 
L 474.856364 560.278588 
L 796.974545 560.278588 
L 796.974545 560.278588 
" style="fill:none;stroke:#1f77b4;stroke-linecap:square;stroke-width:1.5;"/>
   </g>
   <g id="patch_8">
    <path d="M 115.2 569.765647 
L 115.2 361.050353 
" style="fill:none;stroke:#000000;stroke-linecap:square;stroke-linejoin:miter;stroke-width:0.8;"/>
   </g>
   <g id="patch_9">
    <path d="M 829.44 569.765647 
L 829.44 361.050353 
" style="fill:none;stroke:#000000;stroke-linecap:square;stroke-linejoin:miter;stroke-width:0.8;"/>
   </g>
   <g id="patch_10">
    <path d="M 115.2 569.765647 
L 829.44 569.765647 
" style="fill:none;stroke:#000000;stroke-linecap:square;stroke-linejoin:miter;stroke-width:0.8;"/>
   </g>
   <g id="patch_11">
    <path d="M 115.2 361.050353 
L 829.44 361.050353 
" style="fill:none;stroke:#000000;stroke-linecap:square;stroke-linejoin:miter;stroke-width:0.8;"/>
   </g>
  </g>
  <g id="axes_3">
   <g id="patch_12">
    <path d="M 115.2 820.224 
L 829.44 820.224 
L 829.44 611.508706 
L 115.2 611.508706 
z
" style="fill:#ffffff;"/>
   </g>
   <g id="matplotlib.axis_5">
    <g id="xtick_14">
     <g id="line2d_32">
      <g>
       <use style="stroke:#000000;stroke-width:0.8;" x="191.485285" xlink:href="#mfb90e0ae82" y="820.224"/>
      </g>
     </g>
     <g id="text_34">
      <!-- −0.0145 -->
      <g transform="translate(169.800129 834.822437)scale(0.1 -0.1)">
       <use xlink:href="#DejaVuSans-8722"/>
       <use x="83.789062" xlink:href="#DejaVuSans-48"/>
       <use x="147.412109" xlink:href="#DejaVuSans-46"/>
       <use x="179.199219" xlink:href="#DejaVuSans-48"/>
       <use x="242.822266" xlink:href="#DejaVuSans-49"/>
       <use x="306.445312" xlink:href="#DejaVuSans-52"/>
       <use x="370.068359" xlink:href="#DejaVuSans-53"/>
      </g>
     </g>
    </g>
    <g id="xtick_15">
     <g id="line2d_33">
      <g>
       <use style="stroke:#000000;stroke-width:0.8;" x="339.007418" xlink:href="#mfb90e0ae82" y="820.224"/>
      </g>
     </g>
     <g id="text_35">
      <!-- −0.0140 -->
      <g transform="translate(317.322262 834.822437)scale(0.1 -0.1)">
       <use xlink:href="#DejaVuSans-8722"/>
       <use x="83.789062" xlink:href="#DejaVuSans-48"/>
       <use x="147.412109" xlink:href="#DejaVuSans-46"/>
       <use x="179.199219" xlink:href="#DejaVuSans-48"/>
       <use x="242.822266" xlink:href="#DejaVuSans-49"/>
       <use x="306.445312" xlink:href="#DejaVuSans-52"/>
       <use x="370.068359" xlink:href="#DejaVuSans-48"/>
      </g>
     </g>
    </g>
    <g id="xtick_16">
     <g id="line2d_34">
      <g>
       <use style="stroke:#000000;stroke-width:0.8;" x="486.529551" xlink:href="#mfb90e0ae82" y="820.224"/>
      </g>
     </g>
     <g id="text_36">
      <!-- −0.0135 -->
      <g transform="translate(464.844395 834.822437)scale(0.1 -0.1)">
       <use xlink:href="#DejaVuSans-8722"/>
       <use x="83.789062" xlink:href="#DejaVuSans-48"/>
       <use x="147.412109" xlink:href="#DejaVuSans-46"/>
       <use x="179.199219" xlink:href="#DejaVuSans-48"/>
       <use x="242.822266" xlink:href="#DejaVuSans-49"/>
       <use x="306.445312" xlink:href="#DejaVuSans-51"/>
       <use x="370.068359" xlink:href="#DejaVuSans-53"/>
      </g>
     </g>
    </g>
    <g id="xtick_17">
     <g id="line2d_35">
      <g>
       <use style="stroke:#000000;stroke-width:0.8;" x="634.051684" xlink:href="#mfb90e0ae82" y="820.224"/>
      </g>
     </g>
     <g id="text_37">
      <!-- −0.0130 -->
      <g transform="translate(612.366528 834.822437)scale(0.1 -0.1)">
       <use xlink:href="#DejaVuSans-8722"/>
       <use x="83.789062" xlink:href="#DejaVuSans-48"/>
       <use x="147.412109" xlink:href="#DejaVuSans-46"/>
       <use x="179.199219" xlink:href="#DejaVuSans-48"/>
       <use x="242.822266" xlink:href="#DejaVuSans-49"/>
       <use x="306.445312" xlink:href="#DejaVuSans-51"/>
       <use x="370.068359" xlink:href="#DejaVuSans-48"/>
      </g>
     </g>
    </g>
    <g id="xtick_18">
     <g id="line2d_36">
      <g>
       <use style="stroke:#000000;stroke-width:0.8;" x="781.573817" xlink:href="#mfb90e0ae82" y="820.224"/>
      </g>
     </g>
     <g id="text_38">
      <!-- −0.0125 -->
      <g transform="translate(759.888661 834.822437)scale(0.1 -0.1)">
       <use xlink:href="#DejaVuSans-8722"/>
       <use x="83.789062" xlink:href="#DejaVuSans-48"/>
       <use x="147.412109" xlink:href="#DejaVuSans-46"/>
       <use x="179.199219" xlink:href="#DejaVuSans-48"/>
       <use x="242.822266" xlink:href="#DejaVuSans-49"/>
       <use x="306.445312" xlink:href="#DejaVuSans-50"/>
       <use x="370.068359" xlink:href="#DejaVuSans-53"/>
      </g>
     </g>
    </g>
    <g id="text_39">
     <!-- parameter r -->
     <defs>
      <path d="M 34.28125 27.484375 
Q 23.390625 27.484375 19.1875 25 
Q 14.984375 22.515625 14.984375 16.5 
Q 14.984375 11.71875 18.140625 8.90625 
Q 21.296875 6.109375 26.703125 6.109375 
Q 34.1875 6.109375 38.703125 11.40625 
Q 43.21875 16.703125 43.21875 25.484375 
L 43.21875 27.484375 
z
M 52.203125 31.203125 
L 52.203125 0 
L 43.21875 0 
L 43.21875 8.296875 
Q 40.140625 3.328125 35.546875 0.953125 
Q 30.953125 -1.421875 24.3125 -1.421875 
Q 15.921875 -1.421875 10.953125 3.296875 
Q 6 8.015625 6 15.921875 
Q 6 25.140625 12.171875 29.828125 
Q 18.359375 34.515625 30.609375 34.515625 
L 43.21875 34.515625 
L 43.21875 35.40625 
Q 43.21875 41.609375 39.140625 45 
Q 35.0625 48.390625 27.6875 48.390625 
Q 23 48.390625 18.546875 47.265625 
Q 14.109375 46.140625 10.015625 43.890625 
L 10.015625 52.203125 
Q 14.9375 54.109375 19.578125 55.046875 
Q 24.21875 56 28.609375 56 
Q 40.484375 56 46.34375 49.84375 
Q 52.203125 43.703125 52.203125 31.203125 
z
" id="DejaVuSans-97"/>
     </defs>
     <g transform="translate(442.278594 848.500563)scale(0.1 -0.1)">
      <use xlink:href="#DejaVuSans-112"/>
      <use x="63.476562" xlink:href="#DejaVuSans-97"/>
      <use x="124.755859" xlink:href="#DejaVuSans-114"/>
      <use x="165.869141" xlink:href="#DejaVuSans-97"/>
      <use x="227.148438" xlink:href="#DejaVuSans-109"/>
      <use x="324.560547" xlink:href="#DejaVuSans-101"/>
      <use x="386.083984" xlink:href="#DejaVuSans-116"/>
      <use x="425.292969" xlink:href="#DejaVuSans-101"/>
      <use x="486.816406" xlink:href="#DejaVuSans-114"/>
      <use x="527.929688" xlink:href="#DejaVuSans-32"/>
      <use x="559.716797" xlink:href="#DejaVuSans-114"/>
     </g>
    </g>
   </g>
   <g id="matplotlib.axis_6">
    <g id="ytick_17">
     <g id="line2d_37">
      <g>
       <use style="stroke:#000000;stroke-width:0.8;" x="115.2" xlink:href="#mcd4882fb6e" y="817.943134"/>
      </g>
     </g>
     <g id="text_40">
      <!-- 1.4 -->
      <g transform="translate(92.296875 821.742353)scale(0.1 -0.1)">
       <use xlink:href="#DejaVuSans-49"/>
       <use x="63.623047" xlink:href="#DejaVuSans-46"/>
       <use x="95.410156" xlink:href="#DejaVuSans-52"/>
      </g>
     </g>
    </g>
    <g id="ytick_18">
     <g id="line2d_38">
      <g>
       <use style="stroke:#000000;stroke-width:0.8;" x="115.2" xlink:href="#mcd4882fb6e" y="788.501694"/>
      </g>
     </g>
     <g id="text_41">
      <!-- 1.6 -->
      <g transform="translate(92.296875 792.300913)scale(0.1 -0.1)">
       <use xlink:href="#DejaVuSans-49"/>
       <use x="63.623047" xlink:href="#DejaVuSans-46"/>
       <use x="95.410156" xlink:href="#DejaVuSans-54"/>
      </g>
     </g>
    </g>
    <g id="ytick_19">
     <g id="line2d_39">
      <g>
       <use style="stroke:#000000;stroke-width:0.8;" x="115.2" xlink:href="#mcd4882fb6e" y="759.060254"/>
      </g>
     </g>
     <g id="text_42">
      <!-- 1.8 -->
      <defs>
       <path d="M 31.78125 34.625 
Q 24.75 34.625 20.71875 30.859375 
Q 16.703125 27.09375 16.703125 20.515625 
Q 16.703125 13.921875 20.71875 10.15625 
Q 24.75 6.390625 31.78125 6.390625 
Q 38.8125 6.390625 42.859375 10.171875 
Q 46.921875 13.96875 46.921875 20.515625 
Q 46.921875 27.09375 42.890625 30.859375 
Q 38.875 34.625 31.78125 34.625 
z
M 21.921875 38.8125 
Q 15.578125 40.375 12.03125 44.71875 
Q 8.5 49.078125 8.5 55.328125 
Q 8.5 64.0625 14.71875 69.140625 
Q 20.953125 74.21875 31.78125 74.21875 
Q 42.671875 74.21875 48.875 69.140625 
Q 55.078125 64.0625 55.078125 55.328125 
Q 55.078125 49.078125 51.53125 44.71875 
Q 48 40.375 41.703125 38.8125 
Q 48.828125 37.15625 52.796875 32.3125 
Q 56.78125 27.484375 56.78125 20.515625 
Q 56.78125 9.90625 50.3125 4.234375 
Q 43.84375 -1.421875 31.78125 -1.421875 
Q 19.734375 -1.421875 13.25 4.234375 
Q 6.78125 9.90625 6.78125 20.515625 
Q 6.78125 27.484375 10.78125 32.3125 
Q 14.796875 37.15625 21.921875 38.8125 
z
M 18.3125 54.390625 
Q 18.3125 48.734375 21.84375 45.5625 
Q 25.390625 42.390625 31.78125 42.390625 
Q 38.140625 42.390625 41.71875 45.5625 
Q 45.3125 48.734375 45.3125 54.390625 
Q 45.3125 60.0625 41.71875 63.234375 
Q 38.140625 66.40625 31.78125 66.40625 
Q 25.390625 66.40625 21.84375 63.234375 
Q 18.3125 60.0625 18.3125 54.390625 
z
" id="DejaVuSans-56"/>
      </defs>
      <g transform="translate(92.296875 762.859473)scale(0.1 -0.1)">
       <use xlink:href="#DejaVuSans-49"/>
       <use x="63.623047" xlink:href="#DejaVuSans-46"/>
       <use x="95.410156" xlink:href="#DejaVuSans-56"/>
      </g>
     </g>
    </g>
    <g id="ytick_20">
     <g id="line2d_40">
      <g>
       <use style="stroke:#000000;stroke-width:0.8;" x="115.2" xlink:href="#mcd4882fb6e" y="729.618814"/>
      </g>
     </g>
     <g id="text_43">
      <!-- 2.0 -->
      <g transform="translate(92.296875 733.418033)scale(0.1 -0.1)">
       <use xlink:href="#DejaVuSans-50"/>
       <use x="63.623047" xlink:href="#DejaVuSans-46"/>
       <use x="95.410156" xlink:href="#DejaVuSans-48"/>
      </g>
     </g>
    </g>
    <g id="ytick_21">
     <g id="line2d_41">
      <g>
       <use style="stroke:#000000;stroke-width:0.8;" x="115.2" xlink:href="#mcd4882fb6e" y="700.177374"/>
      </g>
     </g>
     <g id="text_44">
      <!-- 2.2 -->
      <g transform="translate(92.296875 703.976593)scale(0.1 -0.1)">
       <use xlink:href="#DejaVuSans-50"/>
       <use x="63.623047" xlink:href="#DejaVuSans-46"/>
       <use x="95.410156" xlink:href="#DejaVuSans-50"/>
      </g>
     </g>
    </g>
    <g id="ytick_22">
     <g id="line2d_42">
      <g>
       <use style="stroke:#000000;stroke-width:0.8;" x="115.2" xlink:href="#mcd4882fb6e" y="670.735934"/>
      </g>
     </g>
     <g id="text_45">
      <!-- 2.4 -->
      <g transform="translate(92.296875 674.535153)scale(0.1 -0.1)">
       <use xlink:href="#DejaVuSans-50"/>
       <use x="63.623047" xlink:href="#DejaVuSans-46"/>
       <use x="95.410156" xlink:href="#DejaVuSans-52"/>
      </g>
     </g>
    </g>
    <g id="ytick_23">
     <g id="line2d_43">
      <g>
       <use style="stroke:#000000;stroke-width:0.8;" x="115.2" xlink:href="#mcd4882fb6e" y="641.294495"/>
      </g>
     </g>
     <g id="text_46">
      <!-- 2.6 -->
      <g transform="translate(92.296875 645.093713)scale(0.1 -0.1)">
       <use xlink:href="#DejaVuSans-50"/>
       <use x="63.623047" xlink:href="#DejaVuSans-46"/>
       <use x="95.410156" xlink:href="#DejaVuSans-54"/>
      </g>
     </g>
    </g>
    <g id="ytick_24">
     <g id="line2d_44">
      <g>
       <use style="stroke:#000000;stroke-width:0.8;" x="115.2" xlink:href="#mcd4882fb6e" y="611.853055"/>
      </g>
     </g>
     <g id="text_47">
      <!-- 2.8 -->
      <g transform="translate(92.296875 615.652273)scale(0.1 -0.1)">
       <use xlink:href="#DejaVuSans-50"/>
       <use x="63.623047" xlink:href="#DejaVuSans-46"/>
       <use x="95.410156" xlink:href="#DejaVuSans-56"/>
      </g>
     </g>
    </g>
    <g id="text_48">
     <!-- L2-norm -->
     <defs>
      <path d="M 9.8125 72.90625 
L 19.671875 72.90625 
L 19.671875 8.296875 
L 55.171875 8.296875 
L 55.171875 0 
L 9.8125 0 
z
" id="DejaVuSans-76"/>
      <path d="M 4.890625 31.390625 
L 31.203125 31.390625 
L 31.203125 23.390625 
L 4.890625 23.390625 
z
" id="DejaVuSans-45"/>
     </defs>
     <g transform="translate(86.217187 736.790572)rotate(-90)scale(0.1 -0.1)">
      <use xlink:href="#DejaVuSans-76"/>
      <use x="55.712891" xlink:href="#DejaVuSans-50"/>
      <use x="119.335938" xlink:href="#DejaVuSans-45"/>
      <use x="155.419922" xlink:href="#DejaVuSans-110"/>
      <use x="218.798828" xlink:href="#DejaVuSans-111"/>
      <use x="279.980469" xlink:href="#DejaVuSans-114"/>
      <use x="321.078125" xlink:href="#DejaVuSans-109"/>
     </g>
    </g>
   </g>
   <g id="line2d_45">
    <path clip-path="url(#p30ab1aaa29)" d="M 634.051684 810.736941 
L 752.329856 804.163988 
L 777.305477 802.386256 
L 786.077159 801.594135 
L 792.267735 800.868452 
L 795.880148 800.208794 
L 796.974545 799.613475 
L 795.658779 799.079684 
L 792.076096 798.603759 
L 786.392881 798.181468 
L 778.787771 797.808257 
L 758.537565 797.190453 
L 732.724705 796.714158 
L 686.276726 796.194087 
L 615.103278 795.721672 
L 424.841092 794.660093 
L 371.40537 794.165869 
L 321.173856 793.506037 
L 270.879898 792.533561 
L 243.335707 791.787396 
L 221.571279 791.028226 
L 200.449519 790.070051 
L 182.508794 788.971655 
L 172.467831 788.158151 
L 164.062497 787.278304 
L 157.36962 786.331831 
L 152.455373 785.319324 
L 150.682343 784.788731 
L 149.372669 784.242246 
L 148.530594 783.68019 
L 148.159321 783.102928 
L 148.261006 782.510867 
L 148.836771 781.904457 
L 149.886708 781.284178 
L 151.409905 780.650548 
L 153.404495 780.004102 
L 158.79585 778.675014 
L 166.028675 777.301509 
L 175.059349 775.888253 
L 185.834985 774.439849 
L 198.295558 772.960738 
L 220.001666 770.693634 
L 245.115683 768.379899 
L 273.390442 766.031134 
L 304.569813 763.657624 
L 338.387955 761.268558 
L 387.095581 758.07346 
L 439.258981 754.884847 
L 507.986323 750.939075 
L 592.610885 746.328606 
L 721.978203 739.330408 
L 760.600872 736.996137 
L 779.219286 735.666055 
L 789.842275 734.689025 
L 793.987391 734.124987 
L 795.518149 733.739672 
L 795.734706 733.564776 
L 795.593852 733.401519 
L 794.276352 733.109541 
L 791.642851 732.861104 
L 784.906321 732.547648 
L 773.930014 732.304726 
L 754.777995 732.139193 
L 723.581106 732.136887 
L 680.09183 732.36275 
L 609.681173 732.960975 
L 374.635544 735.161885 
L 316.475448 735.443328 
L 280.590826 735.468561 
L 247.608264 735.327387 
L 218.115659 734.984904 
L 192.787742 734.403996 
L 181.918962 734.012576 
L 172.377925 733.548151 
L 164.263399 733.007124 
L 157.670213 732.386753 
L 152.68373 731.685295 
L 149.376628 730.902353 
L 147.803425 730.038975 
L 147.996923 729.097531 
L 149.966521 728.08191 
L 153.697635 726.997104 
L 159.153955 725.848911 
L 166.280556 724.643683 
L 175.008709 723.387901 
L 185.259854 722.08799 
L 196.949321 720.75014 
L 224.298139 717.982887 
L 256.379707 715.125452 
L 292.566168 712.209011 
L 332.28518 709.257969 
L 375.009714 706.291566 
L 420.234324 703.325672 
L 491.620536 698.908633 
L 565.467449 694.573244 
L 746.721869 684.115807 
L 776.460447 682.106067 
L 786.561798 681.274489 
L 792.968699 680.582195 
L 795.639653 680.029092 
L 794.657713 679.615974 
L 790.315907 679.334839 
L 783.033183 679.172622 
L 761.766086 679.140514 
L 733.969533 679.396206 
L 683.944017 680.145095 
L 608.920055 681.542894 
L 322.968208 687.183538 
L 273.579325 687.873617 
L 243.494582 688.149984 
L 216.251081 688.237292 
L 192.468325 688.092701 
L 172.896546 687.668959 
L 164.955615 687.33762 
L 158.392386 686.919643 
L 153.315308 686.411375 
L 149.813617 685.810172 
L 147.960853 685.115479 
L 147.804253 684.329048 
L 149.359764 683.454518 
L 152.610796 682.497761 
L 157.509266 681.466231 
L 163.983131 680.368017 
L 171.943235 679.211513 
L 181.289188 678.005113 
L 203.728739 675.472704 
L 230.498427 672.824836 
L 260.886053 670.102978 
L 294.301473 667.336913 
L 330.254867 664.548311 
L 388.061562 660.356397 
L 449.481869 656.186341 
L 513.417086 652.066843 
L 600.396978 646.704087 
L 741.541218 638.103904 
L 771.369549 636.086481 
L 782.495396 635.228461 
L 790.390471 634.50368 
L 794.706356 633.939289 
L 795.717002 633.584415 
L 795.660474 633.530278 
L 794.969962 633.374422 
L 792.96965 633.221381 
L 787.626888 633.086302 
L 778.455418 633.066676 
L 757.80976 633.295946 
L 724.908128 633.925966 
L 675.076455 635.115957 
L 600.815353 637.115348 
L 464.225772 641.05575 
L 343.664151 644.48478 
L 283.112566 646.021301 
L 239.564875 646.922802 
L 210.665875 647.330596 
L 185.905991 647.436437 
L 172.219089 647.30182 
L 161.203771 646.975555 
L 153.245419 646.436626 
L 150.229477 646.03136 
L 148.591187 645.638232 
L 147.934204 645.33818 
L 147.665455 645.013268 
L 147.789769 644.664734 
L 148.307399 644.293104 
L 149.222666 643.896798 
L 151.339255 643.258889 
L 155.531118 642.331817 
L 161.239108 641.324755 
L 170.381809 639.967933 
L 184.070941 638.217078 
L 201.341852 636.258494 
L 222.186314 634.109587 
L 249.565247 631.511093 
L 281.037107 628.734633 
L 323.36273 625.246203 
L 372.241442 621.468643 
L 378.563281 620.995765 
L 378.563281 620.995765 
" style="fill:none;stroke:#1f77b4;stroke-linecap:square;stroke-width:1.5;"/>
   </g>
   <g id="line2d_46">
    <path clip-path="url(#p30ab1aaa29)" d="M 378.563281 620.995765 
" style="fill:none;stroke:#ff7f0e;stroke-linecap:square;stroke-width:1.5;"/>
    <defs>
     <path d="M -3 3 
L 3 -3 
M -3 -3 
L 3 3 
" id="mb9fa002cc4" style="stroke:#ff7f0e;"/>
    </defs>
    <g clip-path="url(#p30ab1aaa29)">
     <use style="fill:#ff7f0e;stroke:#ff7f0e;" x="378.563281" xlink:href="#mb9fa002cc4" y="620.995765"/>
    </g>
   </g>
   <g id="patch_13">
    <path d="M 115.2 820.224 
L 115.2 611.508706 
" style="fill:none;stroke:#000000;stroke-linecap:square;stroke-linejoin:miter;stroke-width:0.8;"/>
   </g>
   <g id="patch_14">
    <path d="M 829.44 820.224 
L 829.44 611.508706 
" style="fill:none;stroke:#000000;stroke-linecap:square;stroke-linejoin:miter;stroke-width:0.8;"/>
   </g>
   <g id="patch_15">
    <path d="M 115.2 820.224 
L 829.44 820.224 
" style="fill:none;stroke:#000000;stroke-linecap:square;stroke-linejoin:miter;stroke-width:0.8;"/>
   </g>
   <g id="patch_16">
    <path d="M 115.2 611.508706 
L 829.44 611.508706 
" style="fill:none;stroke:#000000;stroke-linecap:square;stroke-linejoin:miter;stroke-width:0.8;"/>
   </g>
   <g id="legend_1">
    <g id="patch_17">
     <path d="M 725.294688 732.044478 
L 822.44 732.044478 
Q 824.44 732.044478 824.44 730.044478 
L 824.44 701.688228 
Q 824.44 699.688228 822.44 699.688228 
L 725.294688 699.688228 
Q 723.294688 699.688228 723.294688 701.688228 
L 723.294688 730.044478 
Q 723.294688 732.044478 725.294688 732.044478 
z
" style="fill:#ffffff;opacity:0.8;stroke:#cccccc;stroke-linejoin:miter;"/>
    </g>
    <g id="line2d_47">
     <path d="M 727.294688 707.786665 
L 747.294688 707.786665 
" style="fill:none;stroke:#1f77b4;stroke-linecap:square;stroke-width:1.5;"/>
    </g>
    <g id="line2d_48"/>
    <g id="text_49">
     <!-- branch -->
     <defs>
      <path d="M 48.6875 27.296875 
Q 48.6875 37.203125 44.609375 42.84375 
Q 40.53125 48.484375 33.40625 48.484375 
Q 26.265625 48.484375 22.1875 42.84375 
Q 18.109375 37.203125 18.109375 27.296875 
Q 18.109375 17.390625 22.1875 11.75 
Q 26.265625 6.109375 33.40625 6.109375 
Q 40.53125 6.109375 44.609375 11.75 
Q 48.6875 17.390625 48.6875 27.296875 
z
M 18.109375 46.390625 
Q 20.953125 51.265625 25.265625 53.625 
Q 29.59375 56 35.59375 56 
Q 45.5625 56 51.78125 48.09375 
Q 58.015625 40.1875 58.015625 27.296875 
Q 58.015625 14.40625 51.78125 6.484375 
Q 45.5625 -1.421875 35.59375 -1.421875 
Q 29.59375 -1.421875 25.265625 0.953125 
Q 20.953125 3.328125 18.109375 8.203125 
L 18.109375 0 
L 9.078125 0 
L 9.078125 75.984375 
L 18.109375 75.984375 
z
" id="DejaVuSans-98"/>
      <path d="M 54.890625 33.015625 
L 54.890625 0 
L 45.90625 0 
L 45.90625 32.71875 
Q 45.90625 40.484375 42.875 44.328125 
Q 39.84375 48.1875 33.796875 48.1875 
Q 26.515625 48.1875 22.3125 43.546875 
Q 18.109375 38.921875 18.109375 30.90625 
L 18.109375 0 
L 9.078125 0 
L 9.078125 75.984375 
L 18.109375 75.984375 
L 18.109375 46.1875 
Q 21.34375 51.125 25.703125 53.5625 
Q 30.078125 56 35.796875 56 
Q 45.21875 56 50.046875 50.171875 
Q 54.890625 44.34375 54.890625 33.015625 
z
" id="DejaVuSans-104"/>
     </defs>
     <g transform="translate(755.294688 711.286665)scale(0.1 -0.1)">
      <use xlink:href="#DejaVuSans-98"/>
      <use x="63.476562" xlink:href="#DejaVuSans-114"/>
      <use x="104.589844" xlink:href="#DejaVuSans-97"/>
      <use x="165.869141" xlink:href="#DejaVuSans-110"/>
      <use x="229.248047" xlink:href="#DejaVuSans-99"/>
      <use x="284.228516" xlink:href="#DejaVuSans-104"/>
     </g>
    </g>
    <g id="line2d_49">
     <path d="M 727.294688 722.46479 
L 747.294688 722.46479 
" style="fill:none;stroke:#ff7f0e;stroke-linecap:square;stroke-width:1.5;"/>
    </g>
    <g id="line2d_50">
     <g>
      <use style="fill:#ff7f0e;stroke:#ff7f0e;" x="737.294688" xlink:href="#mb9fa002cc4" y="722.46479"/>
     </g>
    </g>
    <g id="text_50">
     <!-- current point -->
     <g transform="translate(755.294688 725.96479)scale(0.1 -0.1)">
      <use xlink:href="#DejaVuSans-99"/>
      <use x="54.980469" xlink:href="#DejaVuSans-117"/>
      <use x="118.359375" xlink:href="#DejaVuSans-114"/>
      <use x="159.457031" xlink:href="#DejaVuSans-114"/>
      <use x="200.539062" xlink:href="#DejaVuSans-101"/>
      <use x="262.0625" xlink:href="#DejaVuSans-110"/>
      <use x="325.441406" xlink:href="#DejaVuSans-116"/>
      <use x="364.650391" xlink:href="#DejaVuSans-32"/>
      <use x="396.4375" xlink:href="#DejaVuSans-112"/>
      <use x="459.914062" xlink:href="#DejaVuSans-111"/>
      <use x="521.095703" xlink:href="#DejaVuSans-105"/>
      <use x="548.878906" xlink:href="#DejaVuSans-110"/>
      <use x="612.257812" xlink:href="#DejaVuSans-116"/>
     </g>
    </g>
   </g>
  </g>
 </g>
 <defs>
  <clipPath id="p4814f6bfde">
   <rect height="208.715294" width="714.24" x="115.2" y="110.592"/>
  </clipPath>
  <clipPath id="p3e327bbb6a">
   <rect height="208.715294" width="714.24" x="115.2" y="361.050353"/>
  </clipPath>
  <clipPath id="p30ab1aaa29">
   <rect height="208.715294" width="714.24" x="115.2" y="611.508706"/>
  </clipPath>
 </defs>
</svg>
