<?xml version="1.0" encoding="utf-8" standalone="no"?>
<!DOCTYPE svg PUBLIC "-//W3C//DTD SVG 1.1//EN"
  "http://www.w3.org/Graphics/SVG/1.1/DTD/svg11.dtd">
<!-- Created with matplotlib (https://matplotlib.org/) -->
<svg height="648pt" version="1.1" viewBox="0 0 1152 648" width="1152pt" xmlns="http://www.w3.org/2000/svg" xmlns:xlink="http://www.w3.org/1999/xlink">
 <defs>
  <style type="text/css">
*{stroke-linecap:butt;stroke-linejoin:round;}
  </style>
 </defs>
 <g id="figure_1">
  <g id="patch_1">
   <path d="M 0 648 
L 1152 648 
L 1152 0 
L 0 0 
z
" style="fill:#ffffff;"/>
  </g>
  <g id="axes_1">
   <g id="patch_2">
    <path d="M 144 304.56 
L 549.818182 304.56 
L 549.818182 77.76 
L 144 77.76 
z
" style="fill:#ffffff;"/>
   </g>
   <g id="matplotlib.axis_1">
    <g id="xtick_1">
     <g id="line2d_1">
      <defs>
       <path d="M 0 0 
L 0 3.5 
" id="mb09478fba4" style="stroke:#000000;stroke-width:0.8;"/>
      </defs>
      <g>
       <use style="stroke:#000000;stroke-width:0.8;" x="193.190083" xlink:href="#mb09478fba4" y="304.56"/>
      </g>
     </g>
     <g id="text_1">
      <!-- −100 -->
      <defs>
       <path d="M 10.59375 35.5 
L 73.1875 35.5 
L 73.1875 27.203125 
L 10.59375 27.203125 
z
" id="DejaVuSans-8722"/>
       <path d="M 12.40625 8.296875 
L 28.515625 8.296875 
L 28.515625 63.921875 
L 10.984375 60.40625 
L 10.984375 69.390625 
L 28.421875 72.90625 
L 38.28125 72.90625 
L 38.28125 8.296875 
L 54.390625 8.296875 
L 54.390625 0 
L 12.40625 0 
z
" id="DejaVuSans-49"/>
       <path d="M 31.78125 66.40625 
Q 24.171875 66.40625 20.328125 58.90625 
Q 16.5 51.421875 16.5 36.375 
Q 16.5 21.390625 20.328125 13.890625 
Q 24.171875 6.390625 31.78125 6.390625 
Q 39.453125 6.390625 43.28125 13.890625 
Q 47.125 21.390625 47.125 36.375 
Q 47.125 51.421875 43.28125 58.90625 
Q 39.453125 66.40625 31.78125 66.40625 
z
M 31.78125 74.21875 
Q 44.046875 74.21875 50.515625 64.515625 
Q 56.984375 54.828125 56.984375 36.375 
Q 56.984375 17.96875 50.515625 8.265625 
Q 44.046875 -1.421875 31.78125 -1.421875 
Q 19.53125 -1.421875 13.0625 8.265625 
Q 6.59375 17.96875 6.59375 36.375 
Q 6.59375 54.828125 13.0625 64.515625 
Q 19.53125 74.21875 31.78125 74.21875 
z
" id="DejaVuSans-48"/>
      </defs>
      <g transform="translate(179.456489 319.158437)scale(0.1 -0.1)">
       <use xlink:href="#DejaVuSans-8722"/>
       <use x="83.789062" xlink:href="#DejaVuSans-49"/>
       <use x="147.412109" xlink:href="#DejaVuSans-48"/>
       <use x="211.035156" xlink:href="#DejaVuSans-48"/>
      </g>
     </g>
    </g>
    <g id="xtick_2">
     <g id="line2d_2">
      <g>
       <use style="stroke:#000000;stroke-width:0.8;" x="270.049587" xlink:href="#mb09478fba4" y="304.56"/>
      </g>
     </g>
     <g id="text_2">
      <!-- −50 -->
      <defs>
       <path d="M 10.796875 72.90625 
L 49.515625 72.90625 
L 49.515625 64.59375 
L 19.828125 64.59375 
L 19.828125 46.734375 
Q 21.96875 47.46875 24.109375 47.828125 
Q 26.265625 48.1875 28.421875 48.1875 
Q 40.625 48.1875 47.75 41.5 
Q 54.890625 34.8125 54.890625 23.390625 
Q 54.890625 11.625 47.5625 5.09375 
Q 40.234375 -1.421875 26.90625 -1.421875 
Q 22.3125 -1.421875 17.546875 -0.640625 
Q 12.796875 0.140625 7.71875 1.703125 
L 7.71875 11.625 
Q 12.109375 9.234375 16.796875 8.0625 
Q 21.484375 6.890625 26.703125 6.890625 
Q 35.15625 6.890625 40.078125 11.328125 
Q 45.015625 15.765625 45.015625 23.390625 
Q 45.015625 31 40.078125 35.4375 
Q 35.15625 39.890625 26.703125 39.890625 
Q 22.75 39.890625 18.8125 39.015625 
Q 14.890625 38.140625 10.796875 36.28125 
z
" id="DejaVuSans-53"/>
      </defs>
      <g transform="translate(259.497243 319.158437)scale(0.1 -0.1)">
       <use xlink:href="#DejaVuSans-8722"/>
       <use x="83.789062" xlink:href="#DejaVuSans-53"/>
       <use x="147.412109" xlink:href="#DejaVuSans-48"/>
      </g>
     </g>
    </g>
    <g id="xtick_3">
     <g id="line2d_3">
      <g>
       <use style="stroke:#000000;stroke-width:0.8;" x="346.909091" xlink:href="#mb09478fba4" y="304.56"/>
      </g>
     </g>
     <g id="text_3">
      <!-- 0 -->
      <g transform="translate(343.727841 319.158437)scale(0.1 -0.1)">
       <use xlink:href="#DejaVuSans-48"/>
      </g>
     </g>
    </g>
    <g id="xtick_4">
     <g id="line2d_4">
      <g>
       <use style="stroke:#000000;stroke-width:0.8;" x="423.768595" xlink:href="#mb09478fba4" y="304.56"/>
      </g>
     </g>
     <g id="text_4">
      <!-- 50 -->
      <g transform="translate(417.406095 319.158437)scale(0.1 -0.1)">
       <use xlink:href="#DejaVuSans-53"/>
       <use x="63.623047" xlink:href="#DejaVuSans-48"/>
      </g>
     </g>
    </g>
    <g id="xtick_5">
     <g id="line2d_5">
      <g>
       <use style="stroke:#000000;stroke-width:0.8;" x="500.628099" xlink:href="#mb09478fba4" y="304.56"/>
      </g>
     </g>
     <g id="text_5">
      <!-- 100 -->
      <g transform="translate(491.084349 319.158437)scale(0.1 -0.1)">
       <use xlink:href="#DejaVuSans-49"/>
       <use x="63.623047" xlink:href="#DejaVuSans-48"/>
       <use x="127.246094" xlink:href="#DejaVuSans-48"/>
      </g>
     </g>
    </g>
    <g id="text_6">
     <!-- x -->
     <defs>
      <path d="M 54.890625 54.6875 
L 35.109375 28.078125 
L 55.90625 0 
L 45.3125 0 
L 29.390625 21.484375 
L 13.484375 0 
L 2.875 0 
L 24.125 28.609375 
L 4.6875 54.6875 
L 15.28125 54.6875 
L 29.78125 35.203125 
L 44.28125 54.6875 
z
" id="DejaVuSans-120"/>
     </defs>
     <g transform="translate(343.949716 332.836563)scale(0.1 -0.1)">
      <use xlink:href="#DejaVuSans-120"/>
     </g>
    </g>
   </g>
   <g id="matplotlib.axis_2">
    <g id="ytick_1">
     <g id="line2d_6">
      <defs>
       <path d="M 0 0 
L -3.5 0 
" id="mff09b5d150" style="stroke:#000000;stroke-width:0.8;"/>
      </defs>
      <g>
       <use style="stroke:#000000;stroke-width:0.8;" x="144" xlink:href="#mff09b5d150" y="278.942999"/>
      </g>
     </g>
     <g id="text_7">
      <!-- −0.05 -->
      <defs>
       <path d="M 10.6875 12.40625 
L 21 12.40625 
L 21 0 
L 10.6875 0 
z
" id="DejaVuSans-46"/>
      </defs>
      <g transform="translate(106.354687 282.742218)scale(0.1 -0.1)">
       <use xlink:href="#DejaVuSans-8722"/>
       <use x="83.789062" xlink:href="#DejaVuSans-48"/>
       <use x="147.412109" xlink:href="#DejaVuSans-46"/>
       <use x="179.199219" xlink:href="#DejaVuSans-48"/>
       <use x="242.822266" xlink:href="#DejaVuSans-53"/>
      </g>
     </g>
    </g>
    <g id="ytick_2">
     <g id="line2d_7">
      <g>
       <use style="stroke:#000000;stroke-width:0.8;" x="144" xlink:href="#mff09b5d150" y="239.149014"/>
      </g>
     </g>
     <g id="text_8">
      <!-- 0.00 -->
      <g transform="translate(114.734375 242.948233)scale(0.1 -0.1)">
       <use xlink:href="#DejaVuSans-48"/>
       <use x="63.623047" xlink:href="#DejaVuSans-46"/>
       <use x="95.410156" xlink:href="#DejaVuSans-48"/>
       <use x="159.033203" xlink:href="#DejaVuSans-48"/>
      </g>
     </g>
    </g>
    <g id="ytick_3">
     <g id="line2d_8">
      <g>
       <use style="stroke:#000000;stroke-width:0.8;" x="144" xlink:href="#mff09b5d150" y="199.355029"/>
      </g>
     </g>
     <g id="text_9">
      <!-- 0.05 -->
      <g transform="translate(114.734375 203.154247)scale(0.1 -0.1)">
       <use xlink:href="#DejaVuSans-48"/>
       <use x="63.623047" xlink:href="#DejaVuSans-46"/>
       <use x="95.410156" xlink:href="#DejaVuSans-48"/>
       <use x="159.033203" xlink:href="#DejaVuSans-53"/>
      </g>
     </g>
    </g>
    <g id="ytick_4">
     <g id="line2d_9">
      <g>
       <use style="stroke:#000000;stroke-width:0.8;" x="144" xlink:href="#mff09b5d150" y="159.561044"/>
      </g>
     </g>
     <g id="text_10">
      <!-- 0.10 -->
      <g transform="translate(114.734375 163.360262)scale(0.1 -0.1)">
       <use xlink:href="#DejaVuSans-48"/>
       <use x="63.623047" xlink:href="#DejaVuSans-46"/>
       <use x="95.410156" xlink:href="#DejaVuSans-49"/>
       <use x="159.033203" xlink:href="#DejaVuSans-48"/>
      </g>
     </g>
    </g>
    <g id="ytick_5">
     <g id="line2d_10">
      <g>
       <use style="stroke:#000000;stroke-width:0.8;" x="144" xlink:href="#mff09b5d150" y="119.767059"/>
      </g>
     </g>
     <g id="text_11">
      <!-- 0.15 -->
      <g transform="translate(114.734375 123.566277)scale(0.1 -0.1)">
       <use xlink:href="#DejaVuSans-48"/>
       <use x="63.623047" xlink:href="#DejaVuSans-46"/>
       <use x="95.410156" xlink:href="#DejaVuSans-49"/>
       <use x="159.033203" xlink:href="#DejaVuSans-53"/>
      </g>
     </g>
    </g>
    <g id="ytick_6">
     <g id="line2d_11">
      <g>
       <use style="stroke:#000000;stroke-width:0.8;" x="144" xlink:href="#mff09b5d150" y="79.973074"/>
      </g>
     </g>
     <g id="text_12">
      <!-- 0.20 -->
      <defs>
       <path d="M 19.1875 8.296875 
L 53.609375 8.296875 
L 53.609375 0 
L 7.328125 0 
L 7.328125 8.296875 
Q 12.9375 14.109375 22.625 23.890625 
Q 32.328125 33.6875 34.8125 36.53125 
Q 39.546875 41.84375 41.421875 45.53125 
Q 43.3125 49.21875 43.3125 52.78125 
Q 43.3125 58.59375 39.234375 62.25 
Q 35.15625 65.921875 28.609375 65.921875 
Q 23.96875 65.921875 18.8125 64.3125 
Q 13.671875 62.703125 7.8125 59.421875 
L 7.8125 69.390625 
Q 13.765625 71.78125 18.9375 73 
Q 24.125 74.21875 28.421875 74.21875 
Q 39.75 74.21875 46.484375 68.546875 
Q 53.21875 62.890625 53.21875 53.421875 
Q 53.21875 48.921875 51.53125 44.890625 
Q 49.859375 40.875 45.40625 35.40625 
Q 44.1875 33.984375 37.640625 27.21875 
Q 31.109375 20.453125 19.1875 8.296875 
z
" id="DejaVuSans-50"/>
      </defs>
      <g transform="translate(114.734375 83.772292)scale(0.1 -0.1)">
       <use xlink:href="#DejaVuSans-48"/>
       <use x="63.623047" xlink:href="#DejaVuSans-46"/>
       <use x="95.410156" xlink:href="#DejaVuSans-50"/>
       <use x="159.033203" xlink:href="#DejaVuSans-48"/>
      </g>
     </g>
    </g>
    <g id="text_13">
     <!-- solution u(x,t) -->
     <defs>
      <path d="M 44.28125 53.078125 
L 44.28125 44.578125 
Q 40.484375 46.53125 36.375 47.5 
Q 32.28125 48.484375 27.875 48.484375 
Q 21.1875 48.484375 17.84375 46.4375 
Q 14.5 44.390625 14.5 40.28125 
Q 14.5 37.15625 16.890625 35.375 
Q 19.28125 33.59375 26.515625 31.984375 
L 29.59375 31.296875 
Q 39.15625 29.25 43.1875 25.515625 
Q 47.21875 21.78125 47.21875 15.09375 
Q 47.21875 7.46875 41.1875 3.015625 
Q 35.15625 -1.421875 24.609375 -1.421875 
Q 20.21875 -1.421875 15.453125 -0.5625 
Q 10.6875 0.296875 5.421875 2 
L 5.421875 11.28125 
Q 10.40625 8.6875 15.234375 7.390625 
Q 20.0625 6.109375 24.8125 6.109375 
Q 31.15625 6.109375 34.5625 8.28125 
Q 37.984375 10.453125 37.984375 14.40625 
Q 37.984375 18.0625 35.515625 20.015625 
Q 33.0625 21.96875 24.703125 23.78125 
L 21.578125 24.515625 
Q 13.234375 26.265625 9.515625 29.90625 
Q 5.8125 33.546875 5.8125 39.890625 
Q 5.8125 47.609375 11.28125 51.796875 
Q 16.75 56 26.8125 56 
Q 31.78125 56 36.171875 55.265625 
Q 40.578125 54.546875 44.28125 53.078125 
z
" id="DejaVuSans-115"/>
      <path d="M 30.609375 48.390625 
Q 23.390625 48.390625 19.1875 42.75 
Q 14.984375 37.109375 14.984375 27.296875 
Q 14.984375 17.484375 19.15625 11.84375 
Q 23.34375 6.203125 30.609375 6.203125 
Q 37.796875 6.203125 41.984375 11.859375 
Q 46.1875 17.53125 46.1875 27.296875 
Q 46.1875 37.015625 41.984375 42.703125 
Q 37.796875 48.390625 30.609375 48.390625 
z
M 30.609375 56 
Q 42.328125 56 49.015625 48.375 
Q 55.71875 40.765625 55.71875 27.296875 
Q 55.71875 13.875 49.015625 6.21875 
Q 42.328125 -1.421875 30.609375 -1.421875 
Q 18.84375 -1.421875 12.171875 6.21875 
Q 5.515625 13.875 5.515625 27.296875 
Q 5.515625 40.765625 12.171875 48.375 
Q 18.84375 56 30.609375 56 
z
" id="DejaVuSans-111"/>
      <path d="M 9.421875 75.984375 
L 18.40625 75.984375 
L 18.40625 0 
L 9.421875 0 
z
" id="DejaVuSans-108"/>
      <path d="M 8.5 21.578125 
L 8.5 54.6875 
L 17.484375 54.6875 
L 17.484375 21.921875 
Q 17.484375 14.15625 20.5 10.265625 
Q 23.53125 6.390625 29.59375 6.390625 
Q 36.859375 6.390625 41.078125 11.03125 
Q 45.3125 15.671875 45.3125 23.6875 
L 45.3125 54.6875 
L 54.296875 54.6875 
L 54.296875 0 
L 45.3125 0 
L 45.3125 8.40625 
Q 42.046875 3.421875 37.71875 1 
Q 33.40625 -1.421875 27.6875 -1.421875 
Q 18.265625 -1.421875 13.375 4.4375 
Q 8.5 10.296875 8.5 21.578125 
z
M 31.109375 56 
z
" id="DejaVuSans-117"/>
      <path d="M 18.3125 70.21875 
L 18.3125 54.6875 
L 36.8125 54.6875 
L 36.8125 47.703125 
L 18.3125 47.703125 
L 18.3125 18.015625 
Q 18.3125 11.328125 20.140625 9.421875 
Q 21.96875 7.515625 27.59375 7.515625 
L 36.8125 7.515625 
L 36.8125 0 
L 27.59375 0 
Q 17.1875 0 13.234375 3.875 
Q 9.28125 7.765625 9.28125 18.015625 
L 9.28125 47.703125 
L 2.6875 47.703125 
L 2.6875 54.6875 
L 9.28125 54.6875 
L 9.28125 70.21875 
z
" id="DejaVuSans-116"/>
      <path d="M 9.421875 54.6875 
L 18.40625 54.6875 
L 18.40625 0 
L 9.421875 0 
z
M 9.421875 75.984375 
L 18.40625 75.984375 
L 18.40625 64.59375 
L 9.421875 64.59375 
z
" id="DejaVuSans-105"/>
      <path d="M 54.890625 33.015625 
L 54.890625 0 
L 45.90625 0 
L 45.90625 32.71875 
Q 45.90625 40.484375 42.875 44.328125 
Q 39.84375 48.1875 33.796875 48.1875 
Q 26.515625 48.1875 22.3125 43.546875 
Q 18.109375 38.921875 18.109375 30.90625 
L 18.109375 0 
L 9.078125 0 
L 9.078125 54.6875 
L 18.109375 54.6875 
L 18.109375 46.1875 
Q 21.34375 51.125 25.703125 53.5625 
Q 30.078125 56 35.796875 56 
Q 45.21875 56 50.046875 50.171875 
Q 54.890625 44.34375 54.890625 33.015625 
z
" id="DejaVuSans-110"/>
      <path id="DejaVuSans-32"/>
      <path d="M 31 75.875 
Q 24.46875 64.65625 21.28125 53.65625 
Q 18.109375 42.671875 18.109375 31.390625 
Q 18.109375 20.125 21.3125 9.0625 
Q 24.515625 -2 31 -13.1875 
L 23.1875 -13.1875 
Q 15.875 -1.703125 12.234375 9.375 
Q 8.59375 20.453125 8.59375 31.390625 
Q 8.59375 42.28125 12.203125 53.3125 
Q 15.828125 64.359375 23.1875 75.875 
z
" id="DejaVuSans-40"/>
      <path d="M 11.71875 12.40625 
L 22.015625 12.40625 
L 22.015625 4 
L 14.015625 -11.625 
L 7.71875 -11.625 
L 11.71875 4 
z
" id="DejaVuSans-44"/>
      <path d="M 8.015625 75.875 
L 15.828125 75.875 
Q 23.140625 64.359375 26.78125 53.3125 
Q 30.421875 42.28125 30.421875 31.390625 
Q 30.421875 20.453125 26.78125 9.375 
Q 23.140625 -1.703125 15.828125 -13.1875 
L 8.015625 -13.1875 
Q 14.5 -2 17.703125 9.0625 
Q 20.90625 20.125 20.90625 31.390625 
Q 20.90625 42.671875 17.703125 53.65625 
Q 14.5 64.65625 8.015625 75.875 
z
" id="DejaVuSans-41"/>
     </defs>
     <g transform="translate(100.275 226.127187)rotate(-90)scale(0.1 -0.1)">
      <use xlink:href="#DejaVuSans-115"/>
      <use x="52.099609" xlink:href="#DejaVuSans-111"/>
      <use x="113.28125" xlink:href="#DejaVuSans-108"/>
      <use x="141.064453" xlink:href="#DejaVuSans-117"/>
      <use x="204.443359" xlink:href="#DejaVuSans-116"/>
      <use x="243.652344" xlink:href="#DejaVuSans-105"/>
      <use x="271.435547" xlink:href="#DejaVuSans-111"/>
      <use x="332.617188" xlink:href="#DejaVuSans-110"/>
      <use x="395.996094" xlink:href="#DejaVuSans-32"/>
      <use x="427.783203" xlink:href="#DejaVuSans-117"/>
      <use x="491.162109" xlink:href="#DejaVuSans-40"/>
      <use x="530.175781" xlink:href="#DejaVuSans-120"/>
      <use x="589.355469" xlink:href="#DejaVuSans-44"/>
      <use x="621.142578" xlink:href="#DejaVuSans-116"/>
      <use x="660.351562" xlink:href="#DejaVuSans-41"/>
     </g>
    </g>
   </g>
   <g id="line2d_12">
    <path clip-path="url(#p5990b76a3a)" d="M 162.446281 239.149424 
L 240.418819 239.257638 
L 244.750627 239.2336 
L 253.414242 238.939147 
L 256.302114 239.192181 
L 260.633921 239.608227 
L 262.799825 239.551547 
L 264.965729 239.236028 
L 270.019505 238.287209 
L 271.463441 238.289158 
L 272.907377 238.512427 
L 274.351312 238.946199 
L 278.68312 240.60289 
L 280.127056 240.806322 
L 281.570992 240.624365 
L 283.014928 240.020853 
L 284.458864 239.060542 
L 287.346735 236.839114 
L 288.790671 236.126703 
L 289.512639 235.991186 
L 290.234607 236.037124 
L 290.956575 236.279566 
L 291.678543 236.722767 
L 292.400511 237.358903 
L 293.844447 239.115126 
L 296.732319 243.259357 
L 297.454287 244.063035 
L 298.176255 244.639239 
L 298.898223 244.928609 
L 299.620191 244.883126 
L 300.342158 244.470273 
L 301.064126 243.676766 
L 301.786094 242.511573 
L 302.508062 241.007913 
L 303.951998 237.241832 
L 306.117902 231.221044 
L 306.83987 229.619192 
L 307.561838 228.437765 
L 308.283806 227.790932 
L 309.005774 227.769325 
L 309.727742 228.432075 
L 310.44971 229.800415 
L 311.171678 231.853353 
L 311.893646 234.525784 
L 313.337581 241.25473 
L 315.503485 252.102894 
L 316.225453 255.037891 
L 316.947421 257.244705 
L 317.669389 258.509123 
L 318.391357 258.64804 
L 319.113325 257.52385 
L 319.835293 255.0589 
L 320.557261 251.249056 
L 321.279229 246.174978 
L 322.723165 233.018148 
L 324.889069 210.956659 
L 325.611037 204.786241 
L 326.333004 200.002737 
L 327.054972 197.020538 
L 327.77694 196.161717 
L 328.498908 197.626588 
L 329.220876 201.473433 
L 329.942844 207.609397 
L 330.664812 215.793086 
L 332.108748 236.683784 
L 334.274652 270.842537 
L 334.99662 280.376765 
L 335.718588 287.86989 
L 336.440556 292.687663 
L 337.162524 294.250909 
L 337.884492 292.06777 
L 338.60646 285.777265 
L 339.328427 275.203604 
L 340.050395 260.415682 
L 340.772363 241.780939 
L 342.216299 196.101823 
L 344.382203 125.748741 
L 345.104171 107.872762 
L 345.826139 95.082717 
L 346.548107 88.314627 
L 347.270075 88.069091 
L 347.992043 94.364331 
L 348.714011 106.734499 
L 349.435979 124.273327 
L 350.879915 169.58253 
L 353.045818 240.261059 
L 353.767786 259.1577 
L 354.489754 274.247827 
L 355.211722 285.140142 
L 355.93369 291.745278 
L 356.655658 294.22291 
L 357.377626 292.922244 
L 358.099594 288.327066 
L 358.821562 281.011304 
L 360.265498 260.775054 
L 362.431402 226.433365 
L 363.15337 216.472774 
L 363.875338 208.150522 
L 364.597306 201.852456 
L 365.319274 197.830586 
L 366.041241 196.189026 
L 366.763209 196.880548 
L 367.485177 199.714816 
L 368.207145 204.377882 
L 368.929113 210.461043 
L 372.538953 245.751981 
L 373.260921 250.914197 
L 373.982889 254.821781 
L 374.704857 257.387429 
L 375.426825 258.609327 
L 376.148793 258.560117 
L 376.870761 257.373446 
L 377.592729 255.22954 
L 378.314697 252.340786 
L 379.758632 245.25696 
L 381.202568 237.962039 
L 382.646504 232.031568 
L 383.368472 229.929852 
L 384.09044 228.509423 
L 384.812408 227.794514 
L 385.534376 227.766908 
L 386.256344 228.37009 
L 386.978312 229.51551 
L 387.70028 231.090448 
L 389.144216 235.010462 
L 390.588152 239.082421 
L 392.032087 242.410993 
L 392.754055 243.602765 
L 393.476023 244.424467 
L 394.197991 244.865384 
L 394.919959 244.937242 
L 395.641927 244.67125 
L 396.363895 244.114417 
L 397.085863 243.325409 
L 398.529799 241.31794 
L 400.695703 238.233492 
L 401.417671 237.413344 
L 402.139639 236.763545 
L 402.861607 236.305596 
L 403.583575 236.048251 
L 404.305543 235.988117 
L 405.02751 236.110889 
L 405.749478 236.393122 
L 407.193414 237.309616 
L 410.803254 239.990836 
L 412.24719 240.609422 
L 413.691126 240.806947 
L 415.135062 240.616194 
L 416.578998 240.146267 
L 420.188837 238.722213 
L 421.632773 238.380972 
L 423.076709 238.262073 
L 424.520645 238.352067 
L 426.686549 238.750269 
L 430.296389 239.466318 
L 432.462292 239.617775 
L 434.628196 239.522247 
L 441.847876 238.90005 
L 444.735747 238.982589 
L 451.233459 239.280684 
L 456.287235 239.169213 
L 462.062978 239.082492 
L 477.946273 239.134246 
L 501.771215 239.1455 
L 531.371901 239.149424 
L 531.371901 239.149424 
" style="fill:none;stroke:#1f77b4;stroke-linecap:square;stroke-width:1.5;"/>
   </g>
   <g id="patch_3">
    <path d="M 144 304.56 
L 144 77.76 
" style="fill:none;stroke:#000000;stroke-linecap:square;stroke-linejoin:miter;stroke-width:0.8;"/>
   </g>
   <g id="patch_4">
    <path d="M 549.818182 304.56 
L 549.818182 77.76 
" style="fill:none;stroke:#000000;stroke-linecap:square;stroke-linejoin:miter;stroke-width:0.8;"/>
   </g>
   <g id="patch_5">
    <path d="M 144 304.56 
L 549.818182 304.56 
" style="fill:none;stroke:#000000;stroke-linecap:square;stroke-linejoin:miter;stroke-width:0.8;"/>
   </g>
   <g id="patch_6">
    <path d="M 144 77.76 
L 549.818182 77.76 
" style="fill:none;stroke:#000000;stroke-linecap:square;stroke-linejoin:miter;stroke-width:0.8;"/>
   </g>
  </g>
  <g id="axes_2">
   <g id="patch_7">
    <path d="M 630.981818 304.56 
L 1036.8 304.56 
L 1036.8 77.76 
L 630.981818 77.76 
z
" style="fill:#ffffff;"/>
   </g>
   <g id="matplotlib.axis_3">
    <g id="xtick_6">
     <g id="line2d_13">
      <g>
       <use style="stroke:#000000;stroke-width:0.8;" x="649.84623" xlink:href="#mb09478fba4" y="304.56"/>
      </g>
     </g>
     <g id="text_14">
      <!-- −0.016 -->
      <defs>
       <path d="M 33.015625 40.375 
Q 26.375 40.375 22.484375 35.828125 
Q 18.609375 31.296875 18.609375 23.390625 
Q 18.609375 15.53125 22.484375 10.953125 
Q 26.375 6.390625 33.015625 6.390625 
Q 39.65625 6.390625 43.53125 10.953125 
Q 47.40625 15.53125 47.40625 23.390625 
Q 47.40625 31.296875 43.53125 35.828125 
Q 39.65625 40.375 33.015625 40.375 
z
M 52.59375 71.296875 
L 52.59375 62.3125 
Q 48.875 64.0625 45.09375 64.984375 
Q 41.3125 65.921875 37.59375 65.921875 
Q 27.828125 65.921875 22.671875 59.328125 
Q 17.53125 52.734375 16.796875 39.40625 
Q 19.671875 43.65625 24.015625 45.921875 
Q 28.375 48.1875 33.59375 48.1875 
Q 44.578125 48.1875 50.953125 41.515625 
Q 57.328125 34.859375 57.328125 23.390625 
Q 57.328125 12.15625 50.6875 5.359375 
Q 44.046875 -1.421875 33.015625 -1.421875 
Q 20.359375 -1.421875 13.671875 8.265625 
Q 6.984375 17.96875 6.984375 36.375 
Q 6.984375 53.65625 15.1875 63.9375 
Q 23.390625 74.21875 37.203125 74.21875 
Q 40.921875 74.21875 44.703125 73.484375 
Q 48.484375 72.75 52.59375 71.296875 
z
" id="DejaVuSans-54"/>
      </defs>
      <g transform="translate(631.342324 319.158437)scale(0.1 -0.1)">
       <use xlink:href="#DejaVuSans-8722"/>
       <use x="83.789062" xlink:href="#DejaVuSans-48"/>
       <use x="147.412109" xlink:href="#DejaVuSans-46"/>
       <use x="179.199219" xlink:href="#DejaVuSans-48"/>
       <use x="242.822266" xlink:href="#DejaVuSans-49"/>
       <use x="306.445312" xlink:href="#DejaVuSans-54"/>
      </g>
     </g>
    </g>
    <g id="xtick_7">
     <g id="line2d_14">
      <g>
       <use style="stroke:#000000;stroke-width:0.8;" x="723.783185" xlink:href="#mb09478fba4" y="304.56"/>
      </g>
     </g>
     <g id="text_15">
      <!-- −0.015 -->
      <g transform="translate(705.279279 319.158437)scale(0.1 -0.1)">
       <use xlink:href="#DejaVuSans-8722"/>
       <use x="83.789062" xlink:href="#DejaVuSans-48"/>
       <use x="147.412109" xlink:href="#DejaVuSans-46"/>
       <use x="179.199219" xlink:href="#DejaVuSans-48"/>
       <use x="242.822266" xlink:href="#DejaVuSans-49"/>
       <use x="306.445312" xlink:href="#DejaVuSans-53"/>
      </g>
     </g>
    </g>
    <g id="xtick_8">
     <g id="line2d_15">
      <g>
       <use style="stroke:#000000;stroke-width:0.8;" x="797.72014" xlink:href="#mb09478fba4" y="304.56"/>
      </g>
     </g>
     <g id="text_16">
      <!-- −0.014 -->
      <defs>
       <path d="M 37.796875 64.3125 
L 12.890625 25.390625 
L 37.796875 25.390625 
z
M 35.203125 72.90625 
L 47.609375 72.90625 
L 47.609375 25.390625 
L 58.015625 25.390625 
L 58.015625 17.1875 
L 47.609375 17.1875 
L 47.609375 0 
L 37.796875 0 
L 37.796875 17.1875 
L 4.890625 17.1875 
L 4.890625 26.703125 
z
" id="DejaVuSans-52"/>
      </defs>
      <g transform="translate(779.216233 319.158437)scale(0.1 -0.1)">
       <use xlink:href="#DejaVuSans-8722"/>
       <use x="83.789062" xlink:href="#DejaVuSans-48"/>
       <use x="147.412109" xlink:href="#DejaVuSans-46"/>
       <use x="179.199219" xlink:href="#DejaVuSans-48"/>
       <use x="242.822266" xlink:href="#DejaVuSans-49"/>
       <use x="306.445312" xlink:href="#DejaVuSans-52"/>
      </g>
     </g>
    </g>
    <g id="xtick_9">
     <g id="line2d_16">
      <g>
       <use style="stroke:#000000;stroke-width:0.8;" x="871.657094" xlink:href="#mb09478fba4" y="304.56"/>
      </g>
     </g>
     <g id="text_17">
      <!-- −0.013 -->
      <defs>
       <path d="M 40.578125 39.3125 
Q 47.65625 37.796875 51.625 33 
Q 55.609375 28.21875 55.609375 21.1875 
Q 55.609375 10.40625 48.1875 4.484375 
Q 40.765625 -1.421875 27.09375 -1.421875 
Q 22.515625 -1.421875 17.65625 -0.515625 
Q 12.796875 0.390625 7.625 2.203125 
L 7.625 11.71875 
Q 11.71875 9.328125 16.59375 8.109375 
Q 21.484375 6.890625 26.8125 6.890625 
Q 36.078125 6.890625 40.9375 10.546875 
Q 45.796875 14.203125 45.796875 21.1875 
Q 45.796875 27.640625 41.28125 31.265625 
Q 36.765625 34.90625 28.71875 34.90625 
L 20.21875 34.90625 
L 20.21875 43.015625 
L 29.109375 43.015625 
Q 36.375 43.015625 40.234375 45.921875 
Q 44.09375 48.828125 44.09375 54.296875 
Q 44.09375 59.90625 40.109375 62.90625 
Q 36.140625 65.921875 28.71875 65.921875 
Q 24.65625 65.921875 20.015625 65.03125 
Q 15.375 64.15625 9.8125 62.3125 
L 9.8125 71.09375 
Q 15.4375 72.65625 20.34375 73.4375 
Q 25.25 74.21875 29.59375 74.21875 
Q 40.828125 74.21875 47.359375 69.109375 
Q 53.90625 64.015625 53.90625 55.328125 
Q 53.90625 49.265625 50.4375 45.09375 
Q 46.96875 40.921875 40.578125 39.3125 
z
" id="DejaVuSans-51"/>
      </defs>
      <g transform="translate(853.153188 319.158437)scale(0.1 -0.1)">
       <use xlink:href="#DejaVuSans-8722"/>
       <use x="83.789062" xlink:href="#DejaVuSans-48"/>
       <use x="147.412109" xlink:href="#DejaVuSans-46"/>
       <use x="179.199219" xlink:href="#DejaVuSans-48"/>
       <use x="242.822266" xlink:href="#DejaVuSans-49"/>
       <use x="306.445312" xlink:href="#DejaVuSans-51"/>
      </g>
     </g>
    </g>
    <g id="xtick_10">
     <g id="line2d_17">
      <g>
       <use style="stroke:#000000;stroke-width:0.8;" x="945.594049" xlink:href="#mb09478fba4" y="304.56"/>
      </g>
     </g>
     <g id="text_18">
      <!-- −0.012 -->
      <g transform="translate(927.090143 319.158437)scale(0.1 -0.1)">
       <use xlink:href="#DejaVuSans-8722"/>
       <use x="83.789062" xlink:href="#DejaVuSans-48"/>
       <use x="147.412109" xlink:href="#DejaVuSans-46"/>
       <use x="179.199219" xlink:href="#DejaVuSans-48"/>
       <use x="242.822266" xlink:href="#DejaVuSans-49"/>
       <use x="306.445312" xlink:href="#DejaVuSans-50"/>
      </g>
     </g>
    </g>
    <g id="xtick_11">
     <g id="line2d_18">
      <g>
       <use style="stroke:#000000;stroke-width:0.8;" x="1019.531004" xlink:href="#mb09478fba4" y="304.56"/>
      </g>
     </g>
     <g id="text_19">
      <!-- −0.011 -->
      <g transform="translate(1001.027098 319.158437)scale(0.1 -0.1)">
       <use xlink:href="#DejaVuSans-8722"/>
       <use x="83.789062" xlink:href="#DejaVuSans-48"/>
       <use x="147.412109" xlink:href="#DejaVuSans-46"/>
       <use x="179.199219" xlink:href="#DejaVuSans-48"/>
       <use x="242.822266" xlink:href="#DejaVuSans-49"/>
       <use x="306.445312" xlink:href="#DejaVuSans-49"/>
      </g>
     </g>
    </g>
    <g id="text_20">
     <!-- parameter r -->
     <defs>
      <path d="M 18.109375 8.203125 
L 18.109375 -20.796875 
L 9.078125 -20.796875 
L 9.078125 54.6875 
L 18.109375 54.6875 
L 18.109375 46.390625 
Q 20.953125 51.265625 25.265625 53.625 
Q 29.59375 56 35.59375 56 
Q 45.5625 56 51.78125 48.09375 
Q 58.015625 40.1875 58.015625 27.296875 
Q 58.015625 14.40625 51.78125 6.484375 
Q 45.5625 -1.421875 35.59375 -1.421875 
Q 29.59375 -1.421875 25.265625 0.953125 
Q 20.953125 3.328125 18.109375 8.203125 
z
M 48.6875 27.296875 
Q 48.6875 37.203125 44.609375 42.84375 
Q 40.53125 48.484375 33.40625 48.484375 
Q 26.265625 48.484375 22.1875 42.84375 
Q 18.109375 37.203125 18.109375 27.296875 
Q 18.109375 17.390625 22.1875 11.75 
Q 26.265625 6.109375 33.40625 6.109375 
Q 40.53125 6.109375 44.609375 11.75 
Q 48.6875 17.390625 48.6875 27.296875 
z
" id="DejaVuSans-112"/>
      <path d="M 34.28125 27.484375 
Q 23.390625 27.484375 19.1875 25 
Q 14.984375 22.515625 14.984375 16.5 
Q 14.984375 11.71875 18.140625 8.90625 
Q 21.296875 6.109375 26.703125 6.109375 
Q 34.1875 6.109375 38.703125 11.40625 
Q 43.21875 16.703125 43.21875 25.484375 
L 43.21875 27.484375 
z
M 52.203125 31.203125 
L 52.203125 0 
L 43.21875 0 
L 43.21875 8.296875 
Q 40.140625 3.328125 35.546875 0.953125 
Q 30.953125 -1.421875 24.3125 -1.421875 
Q 15.921875 -1.421875 10.953125 3.296875 
Q 6 8.015625 6 15.921875 
Q 6 25.140625 12.171875 29.828125 
Q 18.359375 34.515625 30.609375 34.515625 
L 43.21875 34.515625 
L 43.21875 35.40625 
Q 43.21875 41.609375 39.140625 45 
Q 35.0625 48.390625 27.6875 48.390625 
Q 23 48.390625 18.546875 47.265625 
Q 14.109375 46.140625 10.015625 43.890625 
L 10.015625 52.203125 
Q 14.9375 54.109375 19.578125 55.046875 
Q 24.21875 56 28.609375 56 
Q 40.484375 56 46.34375 49.84375 
Q 52.203125 43.703125 52.203125 31.203125 
z
" id="DejaVuSans-97"/>
      <path d="M 41.109375 46.296875 
Q 39.59375 47.171875 37.8125 47.578125 
Q 36.03125 48 33.890625 48 
Q 26.265625 48 22.1875 43.046875 
Q 18.109375 38.09375 18.109375 28.8125 
L 18.109375 0 
L 9.078125 0 
L 9.078125 54.6875 
L 18.109375 54.6875 
L 18.109375 46.1875 
Q 20.953125 51.171875 25.484375 53.578125 
Q 30.03125 56 36.53125 56 
Q 37.453125 56 38.578125 55.875 
Q 39.703125 55.765625 41.0625 55.515625 
z
" id="DejaVuSans-114"/>
      <path d="M 52 44.1875 
Q 55.375 50.25 60.0625 53.125 
Q 64.75 56 71.09375 56 
Q 79.640625 56 84.28125 50.015625 
Q 88.921875 44.046875 88.921875 33.015625 
L 88.921875 0 
L 79.890625 0 
L 79.890625 32.71875 
Q 79.890625 40.578125 77.09375 44.375 
Q 74.3125 48.1875 68.609375 48.1875 
Q 61.625 48.1875 57.5625 43.546875 
Q 53.515625 38.921875 53.515625 30.90625 
L 53.515625 0 
L 44.484375 0 
L 44.484375 32.71875 
Q 44.484375 40.625 41.703125 44.40625 
Q 38.921875 48.1875 33.109375 48.1875 
Q 26.21875 48.1875 22.15625 43.53125 
Q 18.109375 38.875 18.109375 30.90625 
L 18.109375 0 
L 9.078125 0 
L 9.078125 54.6875 
L 18.109375 54.6875 
L 18.109375 46.1875 
Q 21.1875 51.21875 25.484375 53.609375 
Q 29.78125 56 35.6875 56 
Q 41.65625 56 45.828125 52.96875 
Q 50 49.953125 52 44.1875 
z
" id="DejaVuSans-109"/>
      <path d="M 56.203125 29.59375 
L 56.203125 25.203125 
L 14.890625 25.203125 
Q 15.484375 15.921875 20.484375 11.0625 
Q 25.484375 6.203125 34.421875 6.203125 
Q 39.59375 6.203125 44.453125 7.46875 
Q 49.3125 8.734375 54.109375 11.28125 
L 54.109375 2.78125 
Q 49.265625 0.734375 44.1875 -0.34375 
Q 39.109375 -1.421875 33.890625 -1.421875 
Q 20.796875 -1.421875 13.15625 6.1875 
Q 5.515625 13.8125 5.515625 26.8125 
Q 5.515625 40.234375 12.765625 48.109375 
Q 20.015625 56 32.328125 56 
Q 43.359375 56 49.78125 48.890625 
Q 56.203125 41.796875 56.203125 29.59375 
z
M 47.21875 32.234375 
Q 47.125 39.59375 43.09375 43.984375 
Q 39.0625 48.390625 32.421875 48.390625 
Q 24.90625 48.390625 20.390625 44.140625 
Q 15.875 39.890625 15.1875 32.171875 
z
" id="DejaVuSans-101"/>
     </defs>
     <g transform="translate(803.849503 332.836563)scale(0.1 -0.1)">
      <use xlink:href="#DejaVuSans-112"/>
      <use x="63.476562" xlink:href="#DejaVuSans-97"/>
      <use x="124.755859" xlink:href="#DejaVuSans-114"/>
      <use x="165.869141" xlink:href="#DejaVuSans-97"/>
      <use x="227.148438" xlink:href="#DejaVuSans-109"/>
      <use x="324.560547" xlink:href="#DejaVuSans-101"/>
      <use x="386.083984" xlink:href="#DejaVuSans-116"/>
      <use x="425.292969" xlink:href="#DejaVuSans-101"/>
      <use x="486.816406" xlink:href="#DejaVuSans-114"/>
      <use x="527.929688" xlink:href="#DejaVuSans-32"/>
      <use x="559.716797" xlink:href="#DejaVuSans-114"/>
     </g>
    </g>
   </g>
   <g id="matplotlib.axis_4">
    <g id="ytick_7">
     <g id="line2d_19">
      <g>
       <use style="stroke:#000000;stroke-width:0.8;" x="630.981818" xlink:href="#mff09b5d150" y="303.62702"/>
      </g>
     </g>
     <g id="text_21">
      <!-- 0.5 -->
      <g transform="translate(608.078693 307.426239)scale(0.1 -0.1)">
       <use xlink:href="#DejaVuSans-48"/>
       <use x="63.623047" xlink:href="#DejaVuSans-46"/>
       <use x="95.410156" xlink:href="#DejaVuSans-53"/>
      </g>
     </g>
    </g>
    <g id="ytick_8">
     <g id="line2d_20">
      <g>
       <use style="stroke:#000000;stroke-width:0.8;" x="630.981818" xlink:href="#mff09b5d150" y="266.461468"/>
      </g>
     </g>
     <g id="text_22">
      <!-- 1.0 -->
      <g transform="translate(608.078693 270.260687)scale(0.1 -0.1)">
       <use xlink:href="#DejaVuSans-49"/>
       <use x="63.623047" xlink:href="#DejaVuSans-46"/>
       <use x="95.410156" xlink:href="#DejaVuSans-48"/>
      </g>
     </g>
    </g>
    <g id="ytick_9">
     <g id="line2d_21">
      <g>
       <use style="stroke:#000000;stroke-width:0.8;" x="630.981818" xlink:href="#mff09b5d150" y="229.295916"/>
      </g>
     </g>
     <g id="text_23">
      <!-- 1.5 -->
      <g transform="translate(608.078693 233.095135)scale(0.1 -0.1)">
       <use xlink:href="#DejaVuSans-49"/>
       <use x="63.623047" xlink:href="#DejaVuSans-46"/>
       <use x="95.410156" xlink:href="#DejaVuSans-53"/>
      </g>
     </g>
    </g>
    <g id="ytick_10">
     <g id="line2d_22">
      <g>
       <use style="stroke:#000000;stroke-width:0.8;" x="630.981818" xlink:href="#mff09b5d150" y="192.130364"/>
      </g>
     </g>
     <g id="text_24">
      <!-- 2.0 -->
      <g transform="translate(608.078693 195.929583)scale(0.1 -0.1)">
       <use xlink:href="#DejaVuSans-50"/>
       <use x="63.623047" xlink:href="#DejaVuSans-46"/>
       <use x="95.410156" xlink:href="#DejaVuSans-48"/>
      </g>
     </g>
    </g>
    <g id="ytick_11">
     <g id="line2d_23">
      <g>
       <use style="stroke:#000000;stroke-width:0.8;" x="630.981818" xlink:href="#mff09b5d150" y="154.964812"/>
      </g>
     </g>
     <g id="text_25">
      <!-- 2.5 -->
      <g transform="translate(608.078693 158.764031)scale(0.1 -0.1)">
       <use xlink:href="#DejaVuSans-50"/>
       <use x="63.623047" xlink:href="#DejaVuSans-46"/>
       <use x="95.410156" xlink:href="#DejaVuSans-53"/>
      </g>
     </g>
    </g>
    <g id="ytick_12">
     <g id="line2d_24">
      <g>
       <use style="stroke:#000000;stroke-width:0.8;" x="630.981818" xlink:href="#mff09b5d150" y="117.79926"/>
      </g>
     </g>
     <g id="text_26">
      <!-- 3.0 -->
      <g transform="translate(608.078693 121.598479)scale(0.1 -0.1)">
       <use xlink:href="#DejaVuSans-51"/>
       <use x="63.623047" xlink:href="#DejaVuSans-46"/>
       <use x="95.410156" xlink:href="#DejaVuSans-48"/>
      </g>
     </g>
    </g>
    <g id="ytick_13">
     <g id="line2d_25">
      <g>
       <use style="stroke:#000000;stroke-width:0.8;" x="630.981818" xlink:href="#mff09b5d150" y="80.633708"/>
      </g>
     </g>
     <g id="text_27">
      <!-- 3.5 -->
      <g transform="translate(608.078693 84.432927)scale(0.1 -0.1)">
       <use xlink:href="#DejaVuSans-51"/>
       <use x="63.623047" xlink:href="#DejaVuSans-46"/>
       <use x="95.410156" xlink:href="#DejaVuSans-53"/>
      </g>
     </g>
    </g>
    <g id="text_28">
     <!-- L2-norm -->
     <defs>
      <path d="M 9.8125 72.90625 
L 19.671875 72.90625 
L 19.671875 8.296875 
L 55.171875 8.296875 
L 55.171875 0 
L 9.8125 0 
z
" id="DejaVuSans-76"/>
      <path d="M 4.890625 31.390625 
L 31.203125 31.390625 
L 31.203125 23.390625 
L 4.890625 23.390625 
z
" id="DejaVuSans-45"/>
     </defs>
     <g transform="translate(601.999006 212.084219)rotate(-90)scale(0.1 -0.1)">
      <use xlink:href="#DejaVuSans-76"/>
      <use x="55.712891" xlink:href="#DejaVuSans-50"/>
      <use x="119.335938" xlink:href="#DejaVuSans-45"/>
      <use x="155.419922" xlink:href="#DejaVuSans-110"/>
      <use x="218.798828" xlink:href="#DejaVuSans-111"/>
      <use x="279.980469" xlink:href="#DejaVuSans-114"/>
      <use x="321.078125" xlink:href="#DejaVuSans-109"/>
     </g>
    </g>
   </g>
   <g id="line2d_26">
    <path clip-path="url(#p90a7811015)" d="M 871.657094 233.09043 
L 901.295474 229.771572 
L 907.554722 228.873906 
L 911.304773 228.107488 
L 912.210356 227.774389 
L 912.484953 227.473771 
L 912.15556 227.204221 
L 911.258066 226.963892 
L 907.9286 226.56218 
L 902.85449 226.250206 
L 892.7293 225.91094 
L 876.067566 225.616773 
L 800.936675 224.607135 
L 787.558145 224.192709 
L 775.629048 223.634893 
L 765.524663 222.90293 
L 759.381724 222.22337 
L 756.0638 221.70365 
L 753.419619 221.128797 
L 751.489286 220.498621 
L 750.305173 219.814119 
L 750.00045 219.452136 
L 749.889943 219.077479 
L 749.974762 218.69059 
L 750.255311 218.291961 
L 750.731302 217.882129 
L 752.265198 217.031172 
L 754.561755 216.142562 
L 757.598188 215.221268 
L 761.345541 214.272165 
L 768.225805 212.806373 
L 776.506319 211.302351 
L 787.760329 209.515398 
L 801.101867 207.630897 
L 817.245747 205.565199 
L 837.585968 203.175669 
L 867.668064 199.879719 
L 899.069776 196.399377 
L 907.546008 195.261516 
L 911.282277 194.54643 
L 912.055649 194.259515 
L 912.17237 194.133639 
L 912.114391 194.019213 
L 911.496949 193.823497 
L 909.421112 193.606694 
L 904.832922 193.441284 
L 896.856948 193.390603 
L 880.898865 193.549303 
L 848.085877 194.169872 
L 805.081223 194.949769 
L 786.020552 195.08841 
L 772.938344 194.980984 
L 764.086564 194.708432 
L 758.616752 194.370723 
L 754.329571 193.902425 
L 751.756314 193.398786 
L 750.584871 192.992934 
L 749.954602 192.573478 
L 749.78348 192.271076 
L 749.813864 191.950978 
L 750.046318 191.613785 
L 750.772064 191.077574 
L 751.943403 190.507455 
L 754.176177 189.700123 
L 757.98651 188.626467 
L 762.838733 187.495428 
L 769.890904 186.081728 
L 779.001045 184.477644 
L 791.146269 182.567539 
L 806.035833 180.447529 
L 825.059937 177.96625 
L 848.842528 175.090585 
L 907.073644 168.180127 
L 910.997595 167.49049 
L 912.13026 167.111012 
L 912.166035 167.010488 
L 911.746599 166.847442 
L 909.993874 166.692122 
L 905.283704 166.629578 
L 896.887631 166.766194 
L 881.03404 167.258372 
L 850.23743 168.472495 
L 795.72167 170.636695 
L 779.338781 171.095085 
L 768.606329 171.234112 
L 759.714392 171.124424 
L 755.112176 170.874391 
L 751.820188 170.456357 
L 750.731755 170.179094 
L 750.04458 169.855078 
L 749.773767 169.484653 
L 749.926887 169.069307 
L 750.503206 168.611574 
L 751.493951 168.114838 
L 754.649548 167.020829 
L 759.214185 165.821146 
L 764.98059 164.546918 
L 775.462269 162.548745 
L 787.672421 160.496175 
L 801.207415 158.424717 
L 820.778036 155.671426 
L 844.166209 152.624277 
L 878.45723 148.413312 
L 903.358766 145.286221 
L 910.240851 144.222502 
L 912.008516 143.77983 
L 912.108107 143.576998 
L 911.389707 143.446784 
L 908.997119 143.373179 
L 902.312399 143.504309 
L 889.662049 144.028846 
L 866.759105 145.229066 
L 811.992012 148.40788 
L 784.309832 149.890386 
L 769.355516 150.485041 
L 759.516843 150.633974 
L 753.970082 150.46441 
L 751.436773 150.180022 
L 750.025919 149.740537 
L 749.780761 149.460992 
L 749.853256 149.142588 
L 750.243261 148.787296 
L 750.943909 148.397926 
L 753.221725 147.53081 
L 756.541136 146.570492 
L 763.108189 145.013512 
L 771.142781 143.375237 
L 783.50861 141.135447 
L 797.237883 138.880887 
L 815.746684 136.083057 
L 839.258718 132.79053 
L 867.454417 129.079244 
L 904.02129 124.290317 
L 910.57279 123.232807 
L 912.101476 122.781238 
L 911.890138 122.648319 
L 909.75919 122.555581 
L 903.553181 122.740919 
L 892.243243 123.342773 
L 869.144504 124.842324 
L 831.158124 127.564982 
L 783.871897 130.938833 
L 769.177858 131.796831 
L 759.859244 132.145721 
L 754.901278 132.158777 
L 751.393634 131.927968 
L 750.330209 131.703044 
L 749.797615 131.399396 
L 749.826375 131.017753 
L 750.418306 130.563615 
L 751.545837 130.046324 
L 755.198647 128.867596 
L 760.317944 127.564639 
L 766.49526 126.195922 
L 777.138513 124.0915 
L 788.92376 121.975259 
L 805.833765 119.179184 
L 828.239449 115.7588 
L 856.140897 111.789899 
L 908.455819 104.461961 
L 910.755166 103.947616 
L 910.970772 103.831701 
L 910.905645 103.745178 
L 909.995748 103.656892 
L 907.126333 103.700825 
L 899.777384 104.08518 
L 884.142229 105.177365 
L 859.722377 107.112409 
L 815.459057 110.880267 
L 779.494354 113.904261 
L 765.307144 114.912895 
L 758.044882 115.275137 
L 752.375718 115.328929 
L 749.941054 115.118906 
L 749.252662 114.924297 
L 748.961498 114.667021 
L 749.081336 114.349115 
L 749.60474 113.975912 
L 751.742653 113.096075 
L 755.055933 112.093942 
L 761.553552 110.470295 
L 769.256751 108.785062 
L 780.716845 106.515886 
L 796.278171 103.698938 
L 816.129067 100.380736 
L 840.295723 96.608462 
L 891.610601 88.776336 
L 893.56973 88.256825 
L 893.512905 88.137979 
L 891.882244 88.073956 
L 887.188058 88.295063 
L 876.278342 89.100919 
L 857.820901 90.700868 
L 828.229462 93.503458 
L 780.739715 98.269685 
L 752.894601 100.974686 
L 742.122634 101.846485 
L 735.128921 102.216894 
L 731.307926 102.214229 
L 729.630584 102.049444 
L 728.727242 101.747339 
L 728.569405 101.546279 
L 728.601788 101.314232 
L 728.81534 101.053629 
L 729.735731 100.45828 
L 731.213665 99.784071 
L 734.180676 98.677991 
L 742.211835 95.862245 
L 742.682001 95.446699 
L 742.425708 95.32834 
L 740.920114 95.292224 
L 736.726383 95.646745 
L 728.883168 96.626716 
L 717.503637 98.293713 
L 703.20275 100.624756 
L 689.075618 103.147376 
L 675.569465 105.77509 
L 662.920281 108.460617 
L 651.266875 111.173442 
L 649.428099 111.62655 
L 649.428099 111.62655 
" style="fill:none;stroke:#1f77b4;stroke-dasharray:5.55,2.4;stroke-dashoffset:0;stroke-width:1.5;"/>
   </g>
   <g id="line2d_27">
    <path clip-path="url(#p90a7811015)" d="M 871.657094 233.09043 
L 901.295474 229.771572 
L 907.554722 228.873906 
L 911.304773 228.107488 
L 912.210356 227.774389 
M 749.974762 218.69059 
L 750.255311 218.291961 
L 750.731302 217.882129 
L 752.265198 217.031172 
L 754.561755 216.142562 
L 757.598188 215.221268 
L 761.345541 214.272165 
L 768.225805 212.806373 
L 776.506319 211.302351 
L 787.760329 209.515398 
L 801.101867 207.630897 
L 817.245747 205.565199 
L 837.585968 203.175669 
L 867.668064 199.879719 
L 899.069776 196.399377 
L 907.546008 195.261516 
L 911.282277 194.54643 
L 912.055649 194.259515 
L 912.17237 194.133639 
L 912.114391 194.019213 
L 911.496949 193.823497 
L 910.950814 193.741432 
M 749.813864 191.950978 
L 750.046318 191.613785 
L 750.772064 191.077574 
L 751.943403 190.507455 
L 754.176177 189.700123 
L 757.98651 188.626467 
L 762.838733 187.495428 
L 769.890904 186.081728 
L 779.001045 184.477644 
L 791.146269 182.567539 
L 806.035833 180.447529 
L 825.059937 177.96625 
L 848.842528 175.090585 
L 907.073644 168.180127 
L 910.997595 167.49049 
L 912.13026 167.111012 
M 750.503206 168.611574 
L 751.493951 168.114838 
L 754.649548 167.020829 
L 759.214185 165.821146 
L 764.98059 164.546918 
L 775.462269 162.548745 
L 787.672421 160.496175 
L 801.207415 158.424717 
L 820.778036 155.671426 
L 844.166209 152.624277 
L 878.45723 148.413312 
L 903.358766 145.286221 
L 910.240851 144.222502 
L 912.008516 143.77983 
L 912.164931 143.669057 
M 750.243261 148.787296 
L 750.943909 148.397926 
L 753.221725 147.53081 
L 756.541136 146.570492 
L 763.108189 145.013512 
L 771.142781 143.375237 
L 783.50861 141.135447 
L 797.237883 138.880887 
L 815.746684 136.083057 
L 839.258718 132.79053 
L 867.454417 129.079244 
L 904.02129 124.290317 
L 910.57279 123.232807 
L 912.101476 122.781238 
L 911.890138 122.648319 
L 909.75919 122.555581 
M 750.418306 130.563615 
L 751.545837 130.046324 
L 755.198647 128.867596 
L 760.317944 127.564639 
L 766.49526 126.195922 
L 777.138513 124.0915 
L 788.92376 121.975259 
L 805.833765 119.179184 
L 828.239449 115.7588 
L 856.140897 111.789899 
L 908.455819 104.461961 
L 910.755166 103.947616 
L 910.970772 103.831701 
L 910.905645 103.745178 
L 909.995748 103.656892 
L 909.206022 103.651019 
M 749.60474 113.975912 
L 751.742653 113.096075 
L 755.055933 112.093942 
L 761.553552 110.470295 
L 769.256751 108.785062 
L 780.716845 106.515886 
L 796.278171 103.698938 
L 816.129067 100.380736 
L 840.295723 96.608462 
L 891.610601 88.776336 
L 893.56973 88.256825 
M 728.601788 101.314232 
L 728.81534 101.053629 
L 729.735731 100.45828 
L 731.213665 99.784071 
L 734.180676 98.677991 
L 742.211835 95.862245 
L 742.59683 95.62728 
L 742.59683 95.62728 
" style="fill:none;stroke:#1f77b4;stroke-linecap:square;stroke-width:1.5;"/>
   </g>
   <g id="line2d_28">
    <defs>
     <path d="M 0 -3 
L -0.673542 -0.927051 
L -2.85317 -0.927051 
L -1.089814 0.354102 
L -1.763356 2.427051 
L -0 1.145898 
L 1.763356 2.427051 
L 1.089814 0.354102 
L 2.85317 -0.927051 
L 0.673542 -0.927051 
z
" id="m5af0790542" style="stroke:#2ca02c;stroke-linejoin:bevel;"/>
    </defs>
    <g clip-path="url(#p90a7811015)">
     <use style="fill:#2ca02c;stroke:#2ca02c;stroke-linejoin:bevel;" x="912.484953" xlink:href="#m5af0790542" y="227.473771"/>
     <use style="fill:#2ca02c;stroke:#2ca02c;stroke-linejoin:bevel;" x="749.974762" xlink:href="#m5af0790542" y="218.69059"/>
     <use style="fill:#2ca02c;stroke:#2ca02c;stroke-linejoin:bevel;" x="910.256277" xlink:href="#m5af0790542" y="193.669323"/>
     <use style="fill:#2ca02c;stroke:#2ca02c;stroke-linejoin:bevel;" x="749.813864" xlink:href="#m5af0790542" y="191.950978"/>
     <use style="fill:#2ca02c;stroke:#2ca02c;stroke-linejoin:bevel;" x="912.166035" xlink:href="#m5af0790542" y="167.010488"/>
     <use style="fill:#2ca02c;stroke:#2ca02c;stroke-linejoin:bevel;" x="750.503206" xlink:href="#m5af0790542" y="168.611574"/>
     <use style="fill:#2ca02c;stroke:#2ca02c;stroke-linejoin:bevel;" x="912.108107" xlink:href="#m5af0790542" y="143.576998"/>
     <use style="fill:#2ca02c;stroke:#2ca02c;stroke-linejoin:bevel;" x="750.243261" xlink:href="#m5af0790542" y="148.787296"/>
     <use style="fill:#2ca02c;stroke:#2ca02c;stroke-linejoin:bevel;" x="908.017808" xlink:href="#m5af0790542" y="122.581375"/>
     <use style="fill:#2ca02c;stroke:#2ca02c;stroke-linejoin:bevel;" x="750.418306" xlink:href="#m5af0790542" y="130.563615"/>
     <use style="fill:#2ca02c;stroke:#2ca02c;stroke-linejoin:bevel;" x="908.253188" xlink:href="#m5af0790542" y="103.666375"/>
     <use style="fill:#2ca02c;stroke:#2ca02c;stroke-linejoin:bevel;" x="749.60474" xlink:href="#m5af0790542" y="113.975912"/>
     <use style="fill:#2ca02c;stroke:#2ca02c;stroke-linejoin:bevel;" x="893.512905" xlink:href="#m5af0790542" y="88.137979"/>
     <use style="fill:#2ca02c;stroke:#2ca02c;stroke-linejoin:bevel;" x="891.152513" xlink:href="#m5af0790542" y="88.092949"/>
     <use style="fill:#2ca02c;stroke:#2ca02c;stroke-linejoin:bevel;" x="728.601788" xlink:href="#m5af0790542" y="101.314232"/>
     <use style="fill:#2ca02c;stroke:#2ca02c;stroke-linejoin:bevel;" x="742.682001" xlink:href="#m5af0790542" y="95.446699"/>
    </g>
   </g>
   <g id="line2d_29">
    <path clip-path="url(#p90a7811015)" d="M 871.657094 233.09043 
L 865.246302 233.728007 
L 859.108186 234.368895 
L 852.981898 235.01377 
L 846.849212 235.667768 
L 840.75152 236.329472 
L 834.725358 236.997652 
L 828.802849 237.671239 
L 823.012215 238.349304 
L 817.378238 239.031036 
L 811.922706 239.715724 
L 806.664809 240.402733 
L 801.621469 241.0915 
L 796.807653 241.781509 
L 792.236603 242.47229 
L 787.920087 243.163404 
L 783.868518 243.854439 
L 780.091152 244.545003 
L 776.596204 245.234714 
L 773.390941 245.923197 
L 770.481764 246.610082 
L 767.874274 247.294996 
L 765.573319 247.977565 
L 763.583024 248.657405 
L 761.906818 249.334127 
L 760.547446 250.007328 
L 759.506968 250.676596 
L 758.786756 251.341504 
L 758.387483 252.001615 
L 758.3091 252.65648 
L 758.550823 253.305638 
L 759.111107 253.94862 
L 759.987623 254.584953 
L 761.177238 255.21416 
L 762.675997 255.835767 
L 764.479118 256.449306 
L 766.580982 257.054324 
L 768.975143 257.650384 
L 771.654345 258.237076 
L 774.610549 258.814022 
L 776.189692 259.09871 
L 777.003997 259.240088 
L 777.918568 259.394857 
L 778.947169 259.564195 
L 780.105622 259.749361 
L 781.412152 259.951694 
L 782.887746 260.172615 
L 784.556581 260.413621 
L 786.446487 260.67628 
L 788.391922 260.936357 
L 790.391575 261.193837 
L 792.65224 261.474051 
L 795.210754 261.77863 
L 798.109148 262.109233 
L 801.092347 262.435193 
L 804.15697 262.756519 
L 807.2996 263.073237 
L 810.842468 263.416346 
L 814.470873 263.753983 
L 818.18008 264.086224 
L 822.347849 264.445569 
L 826.601195 264.798643 
L 831.370966 265.179977 
L 836.227675 265.55417 
L 841.162444 265.921496 
L 846.166282 266.282258 
L 851.73937 266.67191 
L 857.938702 267.09238 
L 864.821719 267.545825 
L 872.443158 268.034767 
L 880.849947 268.562304 
L 890.073074 269.132459 
L 900.114795 269.75072 
L 909.958765 270.363714 
L 919.505186 270.976015 
L 928.644002 271.592531 
L 937.259045 272.218854 
L 945.22401 272.861006 
L 952.405251 273.525495 
L 955.657869 273.868124 
L 958.662614 274.218828 
L 961.404282 274.578606 
L 963.867807 274.948363 
L 966.039691 275.32899 
L 967.908631 275.721341 
L 969.466232 276.126221 
L 970.707757 276.544354 
L 971.632955 276.976361 
L 972.24685 277.422732 
L 972.560493 277.883889 
L 972.591345 278.359804 
L 972.363998 278.850483 
L 971.909916 279.355662 
L 971.267166 279.874873 
L 970.479734 280.407463 
L 969.596512 280.952611 
L 968.670042 281.509367 
L 967.755125 282.076688 
L 966.907397 282.653476 
L 966.182012 283.238619 
L 965.632481 283.831019 
L 965.309743 284.429615 
L 965.261469 285.033412 
L 965.53161 285.641484 
L 966.160131 286.252979 
L 967.182948 286.867133 
L 968.631951 287.483252 
L 970.535146 288.100715 
L 972.916849 288.718971 
L 975.797897 289.337522 
L 979.19589 289.955925 
L 983.125428 290.573781 
L 987.598304 291.190725 
L 992.623726 291.806425 
L 998.208496 292.420575 
L 1004.35715 293.032886 
L 1011.072099 293.643085 
L 1018.353719 294.250909 
" style="fill:none;stroke:#1f77b4;stroke-dasharray:5.55,2.4;stroke-dashoffset:0;stroke-width:1.5;"/>
   </g>
   <g id="line2d_30">
    <path clip-path="url(#p90a7811015)" d="M 871.657094 233.09043 
L 865.246302 233.728007 
L 859.108186 234.368895 
L 852.981898 235.01377 
L 846.849212 235.667768 
L 840.75152 236.329472 
L 834.725358 236.997652 
L 828.802849 237.671239 
L 823.012215 238.349304 
L 817.378238 239.031036 
L 811.922706 239.715724 
L 806.664809 240.402733 
L 801.621469 241.0915 
L 796.807653 241.781509 
L 792.236603 242.47229 
L 787.920087 243.163404 
L 783.868518 243.854439 
L 780.091152 244.545003 
L 776.596204 245.234714 
L 773.390941 245.923197 
L 770.481764 246.610082 
L 767.874274 247.294996 
L 765.573319 247.977565 
L 763.583024 248.657405 
L 761.906818 249.334127 
L 760.547446 250.007328 
L 759.506968 250.676596 
L 758.786756 251.341504 
L 758.387483 252.001615 
M 972.363998 278.850483 
L 971.909916 279.355662 
L 971.267166 279.874873 
L 970.479734 280.407463 
L 969.596512 280.952611 
L 968.670042 281.509367 
L 967.755125 282.076688 
L 966.907397 282.653476 
L 966.182012 283.238619 
L 965.632481 283.831019 
L 965.309743 284.429615 
" style="fill:none;stroke:#1f77b4;stroke-linecap:square;stroke-width:1.5;"/>
   </g>
   <g id="line2d_31">
    <g clip-path="url(#p90a7811015)">
     <use style="fill:#2ca02c;stroke:#2ca02c;stroke-linejoin:bevel;" x="758.3091" xlink:href="#m5af0790542" y="252.65648"/>
     <use style="fill:#2ca02c;stroke:#2ca02c;stroke-linejoin:bevel;" x="759.987623" xlink:href="#m5af0790542" y="254.584953"/>
     <use style="fill:#2ca02c;stroke:#2ca02c;stroke-linejoin:bevel;" x="972.560493" xlink:href="#m5af0790542" y="277.883889"/>
     <use style="fill:#2ca02c;stroke:#2ca02c;stroke-linejoin:bevel;" x="972.363998" xlink:href="#m5af0790542" y="278.850483"/>
     <use style="fill:#2ca02c;stroke:#2ca02c;stroke-linejoin:bevel;" x="965.261469" xlink:href="#m5af0790542" y="285.033412"/>
    </g>
   </g>
   <g id="line2d_32">
    <g clip-path="url(#p90a7811015)">
     <use style="fill:#2ca02c;stroke:#2ca02c;stroke-linejoin:bevel;" x="0" xlink:href="#m5af0790542" y="0"/>
    </g>
   </g>
   <g id="line2d_33">
    <defs>
     <path d="M -3 3 
L 3 -3 
M -3 -3 
L 3 3 
" id="mcda71f1968" style="stroke:#000000;"/>
    </defs>
    <g clip-path="url(#p90a7811015)">
     <use style="stroke:#000000;" x="1018.353719" xlink:href="#mcda71f1968" y="294.250909"/>
    </g>
   </g>
   <g id="patch_8">
    <path d="M 630.981818 304.56 
L 630.981818 77.76 
" style="fill:none;stroke:#000000;stroke-linecap:square;stroke-linejoin:miter;stroke-width:0.8;"/>
   </g>
   <g id="patch_9">
    <path d="M 1036.8 304.56 
L 1036.8 77.76 
" style="fill:none;stroke:#000000;stroke-linecap:square;stroke-linejoin:miter;stroke-width:0.8;"/>
   </g>
   <g id="patch_10">
    <path d="M 630.981818 304.56 
L 1036.8 304.56 
" style="fill:none;stroke:#000000;stroke-linecap:square;stroke-linejoin:miter;stroke-width:0.8;"/>
   </g>
   <g id="patch_11">
    <path d="M 630.981818 77.76 
L 1036.8 77.76 
" style="fill:none;stroke:#000000;stroke-linecap:square;stroke-linejoin:miter;stroke-width:0.8;"/>
   </g>
   <g id="legend_1">
    <g id="patch_12">
     <path d="M 932.654687 115.11625 
L 1029.8 115.11625 
Q 1031.8 115.11625 1031.8 113.11625 
L 1031.8 84.76 
Q 1031.8 82.76 1029.8 82.76 
L 932.654687 82.76 
Q 930.654687 82.76 930.654687 84.76 
L 930.654687 113.11625 
Q 930.654687 115.11625 932.654687 115.11625 
z
" style="fill:#ffffff;opacity:0.8;stroke:#cccccc;stroke-linejoin:miter;"/>
    </g>
    <g id="line2d_34"/>
    <g id="line2d_35">
     <g>
      <use style="fill:#2ca02c;stroke:#2ca02c;stroke-linejoin:bevel;" x="944.654687" xlink:href="#m5af0790542" y="90.858438"/>
     </g>
    </g>
    <g id="text_29">
     <!-- bifurcations -->
     <defs>
      <path d="M 48.6875 27.296875 
Q 48.6875 37.203125 44.609375 42.84375 
Q 40.53125 48.484375 33.40625 48.484375 
Q 26.265625 48.484375 22.1875 42.84375 
Q 18.109375 37.203125 18.109375 27.296875 
Q 18.109375 17.390625 22.1875 11.75 
Q 26.265625 6.109375 33.40625 6.109375 
Q 40.53125 6.109375 44.609375 11.75 
Q 48.6875 17.390625 48.6875 27.296875 
z
M 18.109375 46.390625 
Q 20.953125 51.265625 25.265625 53.625 
Q 29.59375 56 35.59375 56 
Q 45.5625 56 51.78125 48.09375 
Q 58.015625 40.1875 58.015625 27.296875 
Q 58.015625 14.40625 51.78125 6.484375 
Q 45.5625 -1.421875 35.59375 -1.421875 
Q 29.59375 -1.421875 25.265625 0.953125 
Q 20.953125 3.328125 18.109375 8.203125 
L 18.109375 0 
L 9.078125 0 
L 9.078125 75.984375 
L 18.109375 75.984375 
z
" id="DejaVuSans-98"/>
      <path d="M 37.109375 75.984375 
L 37.109375 68.5 
L 28.515625 68.5 
Q 23.6875 68.5 21.796875 66.546875 
Q 19.921875 64.59375 19.921875 59.515625 
L 19.921875 54.6875 
L 34.71875 54.6875 
L 34.71875 47.703125 
L 19.921875 47.703125 
L 19.921875 0 
L 10.890625 0 
L 10.890625 47.703125 
L 2.296875 47.703125 
L 2.296875 54.6875 
L 10.890625 54.6875 
L 10.890625 58.5 
Q 10.890625 67.625 15.140625 71.796875 
Q 19.390625 75.984375 28.609375 75.984375 
z
" id="DejaVuSans-102"/>
      <path d="M 48.78125 52.59375 
L 48.78125 44.1875 
Q 44.96875 46.296875 41.140625 47.34375 
Q 37.3125 48.390625 33.40625 48.390625 
Q 24.65625 48.390625 19.8125 42.84375 
Q 14.984375 37.3125 14.984375 27.296875 
Q 14.984375 17.28125 19.8125 11.734375 
Q 24.65625 6.203125 33.40625 6.203125 
Q 37.3125 6.203125 41.140625 7.25 
Q 44.96875 8.296875 48.78125 10.40625 
L 48.78125 2.09375 
Q 45.015625 0.34375 40.984375 -0.53125 
Q 36.96875 -1.421875 32.421875 -1.421875 
Q 20.0625 -1.421875 12.78125 6.34375 
Q 5.515625 14.109375 5.515625 27.296875 
Q 5.515625 40.671875 12.859375 48.328125 
Q 20.21875 56 33.015625 56 
Q 37.15625 56 41.109375 55.140625 
Q 45.0625 54.296875 48.78125 52.59375 
z
" id="DejaVuSans-99"/>
     </defs>
     <g transform="translate(962.654687 94.358438)scale(0.1 -0.1)">
      <use xlink:href="#DejaVuSans-98"/>
      <use x="63.476562" xlink:href="#DejaVuSans-105"/>
      <use x="91.259766" xlink:href="#DejaVuSans-102"/>
      <use x="126.464844" xlink:href="#DejaVuSans-117"/>
      <use x="189.84375" xlink:href="#DejaVuSans-114"/>
      <use x="230.925781" xlink:href="#DejaVuSans-99"/>
      <use x="285.90625" xlink:href="#DejaVuSans-97"/>
      <use x="347.185547" xlink:href="#DejaVuSans-116"/>
      <use x="386.394531" xlink:href="#DejaVuSans-105"/>
      <use x="414.177734" xlink:href="#DejaVuSans-111"/>
      <use x="475.359375" xlink:href="#DejaVuSans-110"/>
      <use x="538.738281" xlink:href="#DejaVuSans-115"/>
     </g>
    </g>
    <g id="line2d_36"/>
    <g id="line2d_37">
     <g>
      <use style="stroke:#000000;" x="944.654687" xlink:href="#mcda71f1968" y="105.536563"/>
     </g>
    </g>
    <g id="text_30">
     <!-- current point -->
     <g transform="translate(962.654687 109.036563)scale(0.1 -0.1)">
      <use xlink:href="#DejaVuSans-99"/>
      <use x="54.980469" xlink:href="#DejaVuSans-117"/>
      <use x="118.359375" xlink:href="#DejaVuSans-114"/>
      <use x="159.457031" xlink:href="#DejaVuSans-114"/>
      <use x="200.539062" xlink:href="#DejaVuSans-101"/>
      <use x="262.0625" xlink:href="#DejaVuSans-110"/>
      <use x="325.441406" xlink:href="#DejaVuSans-116"/>
      <use x="364.650391" xlink:href="#DejaVuSans-32"/>
      <use x="396.4375" xlink:href="#DejaVuSans-112"/>
      <use x="459.914062" xlink:href="#DejaVuSans-111"/>
      <use x="521.095703" xlink:href="#DejaVuSans-105"/>
      <use x="548.878906" xlink:href="#DejaVuSans-110"/>
      <use x="612.257812" xlink:href="#DejaVuSans-116"/>
     </g>
    </g>
   </g>
  </g>
  <g id="axes_3">
   <g id="patch_13">
    <path d="M 144 576.72 
L 549.818182 576.72 
L 549.818182 349.92 
L 144 349.92 
z
" style="fill:#ffffff;"/>
   </g>
   <g id="matplotlib.axis_5">
    <g id="xtick_12">
     <g id="line2d_38">
      <g>
       <use style="stroke:#000000;stroke-width:0.8;" x="144" xlink:href="#mb09478fba4" y="576.72"/>
      </g>
     </g>
     <g id="text_31">
      <!-- 0.0 -->
      <g transform="translate(136.048438 591.318438)scale(0.1 -0.1)">
       <use xlink:href="#DejaVuSans-48"/>
       <use x="63.623047" xlink:href="#DejaVuSans-46"/>
       <use x="95.410156" xlink:href="#DejaVuSans-48"/>
      </g>
     </g>
    </g>
    <g id="xtick_13">
     <g id="line2d_39">
      <g>
       <use style="stroke:#000000;stroke-width:0.8;" x="204.551222" xlink:href="#mb09478fba4" y="576.72"/>
      </g>
     </g>
     <g id="text_32">
      <!-- 0.5 -->
      <g transform="translate(196.599659 591.318438)scale(0.1 -0.1)">
       <use xlink:href="#DejaVuSans-48"/>
       <use x="63.623047" xlink:href="#DejaVuSans-46"/>
       <use x="95.410156" xlink:href="#DejaVuSans-53"/>
      </g>
     </g>
    </g>
    <g id="xtick_14">
     <g id="line2d_40">
      <g>
       <use style="stroke:#000000;stroke-width:0.8;" x="265.102443" xlink:href="#mb09478fba4" y="576.72"/>
      </g>
     </g>
     <g id="text_33">
      <!-- 1.0 -->
      <g transform="translate(257.150881 591.318438)scale(0.1 -0.1)">
       <use xlink:href="#DejaVuSans-49"/>
       <use x="63.623047" xlink:href="#DejaVuSans-46"/>
       <use x="95.410156" xlink:href="#DejaVuSans-48"/>
      </g>
     </g>
    </g>
    <g id="xtick_15">
     <g id="line2d_41">
      <g>
       <use style="stroke:#000000;stroke-width:0.8;" x="325.653665" xlink:href="#mb09478fba4" y="576.72"/>
      </g>
     </g>
     <g id="text_34">
      <!-- 1.5 -->
      <g transform="translate(317.702102 591.318438)scale(0.1 -0.1)">
       <use xlink:href="#DejaVuSans-49"/>
       <use x="63.623047" xlink:href="#DejaVuSans-46"/>
       <use x="95.410156" xlink:href="#DejaVuSans-53"/>
      </g>
     </g>
    </g>
    <g id="xtick_16">
     <g id="line2d_42">
      <g>
       <use style="stroke:#000000;stroke-width:0.8;" x="386.204886" xlink:href="#mb09478fba4" y="576.72"/>
      </g>
     </g>
     <g id="text_35">
      <!-- 2.0 -->
      <g transform="translate(378.253324 591.318438)scale(0.1 -0.1)">
       <use xlink:href="#DejaVuSans-50"/>
       <use x="63.623047" xlink:href="#DejaVuSans-46"/>
       <use x="95.410156" xlink:href="#DejaVuSans-48"/>
      </g>
     </g>
    </g>
    <g id="xtick_17">
     <g id="line2d_43">
      <g>
       <use style="stroke:#000000;stroke-width:0.8;" x="446.756108" xlink:href="#mb09478fba4" y="576.72"/>
      </g>
     </g>
     <g id="text_36">
      <!-- 2.5 -->
      <g transform="translate(438.804545 591.318438)scale(0.1 -0.1)">
       <use xlink:href="#DejaVuSans-50"/>
       <use x="63.623047" xlink:href="#DejaVuSans-46"/>
       <use x="95.410156" xlink:href="#DejaVuSans-53"/>
      </g>
     </g>
    </g>
    <g id="xtick_18">
     <g id="line2d_44">
      <g>
       <use style="stroke:#000000;stroke-width:0.8;" x="507.307329" xlink:href="#mb09478fba4" y="576.72"/>
      </g>
     </g>
     <g id="text_37">
      <!-- 3.0 -->
      <g transform="translate(499.355767 591.318438)scale(0.1 -0.1)">
       <use xlink:href="#DejaVuSans-51"/>
       <use x="63.623047" xlink:href="#DejaVuSans-46"/>
       <use x="95.410156" xlink:href="#DejaVuSans-48"/>
      </g>
     </g>
    </g>
    <g id="text_38">
     <!-- k -->
     <defs>
      <path d="M 9.078125 75.984375 
L 18.109375 75.984375 
L 18.109375 31.109375 
L 44.921875 54.6875 
L 56.390625 54.6875 
L 27.390625 29.109375 
L 57.625 0 
L 45.90625 0 
L 18.109375 26.703125 
L 18.109375 0 
L 9.078125 0 
z
" id="DejaVuSans-107"/>
     </defs>
     <g transform="translate(344.013778 604.996562)scale(0.1 -0.1)">
      <use xlink:href="#DejaVuSans-107"/>
     </g>
    </g>
   </g>
   <g id="matplotlib.axis_6">
    <g id="ytick_14">
     <g id="line2d_45">
      <g>
       <use style="stroke:#000000;stroke-width:0.8;" x="144" xlink:href="#mff09b5d150" y="566.410909"/>
      </g>
     </g>
     <g id="text_39">
      <!-- 0.0 -->
      <g transform="translate(121.096875 570.210128)scale(0.1 -0.1)">
       <use xlink:href="#DejaVuSans-48"/>
       <use x="63.623047" xlink:href="#DejaVuSans-46"/>
       <use x="95.410156" xlink:href="#DejaVuSans-48"/>
      </g>
     </g>
    </g>
    <g id="ytick_15">
     <g id="line2d_46">
      <g>
       <use style="stroke:#000000;stroke-width:0.8;" x="144" xlink:href="#mff09b5d150" y="538.237133"/>
      </g>
     </g>
     <g id="text_40">
      <!-- 0.5 -->
      <g transform="translate(121.096875 542.036351)scale(0.1 -0.1)">
       <use xlink:href="#DejaVuSans-48"/>
       <use x="63.623047" xlink:href="#DejaVuSans-46"/>
       <use x="95.410156" xlink:href="#DejaVuSans-53"/>
      </g>
     </g>
    </g>
    <g id="ytick_16">
     <g id="line2d_47">
      <g>
       <use style="stroke:#000000;stroke-width:0.8;" x="144" xlink:href="#mff09b5d150" y="510.063356"/>
      </g>
     </g>
     <g id="text_41">
      <!-- 1.0 -->
      <g transform="translate(121.096875 513.862575)scale(0.1 -0.1)">
       <use xlink:href="#DejaVuSans-49"/>
       <use x="63.623047" xlink:href="#DejaVuSans-46"/>
       <use x="95.410156" xlink:href="#DejaVuSans-48"/>
      </g>
     </g>
    </g>
    <g id="ytick_17">
     <g id="line2d_48">
      <g>
       <use style="stroke:#000000;stroke-width:0.8;" x="144" xlink:href="#mff09b5d150" y="481.88958"/>
      </g>
     </g>
     <g id="text_42">
      <!-- 1.5 -->
      <g transform="translate(121.096875 485.688799)scale(0.1 -0.1)">
       <use xlink:href="#DejaVuSans-49"/>
       <use x="63.623047" xlink:href="#DejaVuSans-46"/>
       <use x="95.410156" xlink:href="#DejaVuSans-53"/>
      </g>
     </g>
    </g>
    <g id="ytick_18">
     <g id="line2d_49">
      <g>
       <use style="stroke:#000000;stroke-width:0.8;" x="144" xlink:href="#mff09b5d150" y="453.715804"/>
      </g>
     </g>
     <g id="text_43">
      <!-- 2.0 -->
      <g transform="translate(121.096875 457.515022)scale(0.1 -0.1)">
       <use xlink:href="#DejaVuSans-50"/>
       <use x="63.623047" xlink:href="#DejaVuSans-46"/>
       <use x="95.410156" xlink:href="#DejaVuSans-48"/>
      </g>
     </g>
    </g>
    <g id="ytick_19">
     <g id="line2d_50">
      <g>
       <use style="stroke:#000000;stroke-width:0.8;" x="144" xlink:href="#mff09b5d150" y="425.542027"/>
      </g>
     </g>
     <g id="text_44">
      <!-- 2.5 -->
      <g transform="translate(121.096875 429.341246)scale(0.1 -0.1)">
       <use xlink:href="#DejaVuSans-50"/>
       <use x="63.623047" xlink:href="#DejaVuSans-46"/>
       <use x="95.410156" xlink:href="#DejaVuSans-53"/>
      </g>
     </g>
    </g>
    <g id="ytick_20">
     <g id="line2d_51">
      <g>
       <use style="stroke:#000000;stroke-width:0.8;" x="144" xlink:href="#mff09b5d150" y="397.368251"/>
      </g>
     </g>
     <g id="text_45">
      <!-- 3.0 -->
      <g transform="translate(121.096875 401.16747)scale(0.1 -0.1)">
       <use xlink:href="#DejaVuSans-51"/>
       <use x="63.623047" xlink:href="#DejaVuSans-46"/>
       <use x="95.410156" xlink:href="#DejaVuSans-48"/>
      </g>
     </g>
    </g>
    <g id="ytick_21">
     <g id="line2d_52">
      <g>
       <use style="stroke:#000000;stroke-width:0.8;" x="144" xlink:href="#mff09b5d150" y="369.194474"/>
      </g>
     </g>
     <g id="text_46">
      <!-- 3.5 -->
      <g transform="translate(121.096875 372.993693)scale(0.1 -0.1)">
       <use xlink:href="#DejaVuSans-51"/>
       <use x="63.623047" xlink:href="#DejaVuSans-46"/>
       <use x="95.410156" xlink:href="#DejaVuSans-53"/>
      </g>
     </g>
    </g>
    <g id="text_47">
     <!-- fourier spectrum u(k,t) -->
     <g transform="translate(115.017187 520.237188)rotate(-90)scale(0.1 -0.1)">
      <use xlink:href="#DejaVuSans-102"/>
      <use x="35.205078" xlink:href="#DejaVuSans-111"/>
      <use x="96.386719" xlink:href="#DejaVuSans-117"/>
      <use x="159.765625" xlink:href="#DejaVuSans-114"/>
      <use x="200.878906" xlink:href="#DejaVuSans-105"/>
      <use x="228.662109" xlink:href="#DejaVuSans-101"/>
      <use x="290.185547" xlink:href="#DejaVuSans-114"/>
      <use x="331.298828" xlink:href="#DejaVuSans-32"/>
      <use x="363.085938" xlink:href="#DejaVuSans-115"/>
      <use x="415.185547" xlink:href="#DejaVuSans-112"/>
      <use x="478.662109" xlink:href="#DejaVuSans-101"/>
      <use x="540.185547" xlink:href="#DejaVuSans-99"/>
      <use x="595.166016" xlink:href="#DejaVuSans-116"/>
      <use x="634.375" xlink:href="#DejaVuSans-114"/>
      <use x="675.488281" xlink:href="#DejaVuSans-117"/>
      <use x="738.867188" xlink:href="#DejaVuSans-109"/>
      <use x="836.279297" xlink:href="#DejaVuSans-32"/>
      <use x="868.066406" xlink:href="#DejaVuSans-117"/>
      <use x="931.445312" xlink:href="#DejaVuSans-40"/>
      <use x="970.458984" xlink:href="#DejaVuSans-107"/>
      <use x="1028.369141" xlink:href="#DejaVuSans-44"/>
      <use x="1060.15625" xlink:href="#DejaVuSans-116"/>
      <use x="1099.365234" xlink:href="#DejaVuSans-41"/>
     </g>
    </g>
   </g>
   <g id="line2d_53">
    <path clip-path="url(#pe2d45e08f7)" d="M 144 476.706004 
L 147.170455 477.833771 
L 150.340909 480.969608 
L 153.511364 485.473638 
L 159.852273 495.446553 
L 163.022727 499.600353 
L 166.193182 502.608601 
L 169.363636 504.192569 
L 172.534091 504.122978 
L 175.704545 502.15166 
L 178.875 497.950642 
L 182.045455 491.057604 
L 185.215909 480.832589 
L 188.386364 466.457159 
L 191.556818 447.082662 
L 194.727273 422.41485 
L 197.897727 394.289538 
L 201.068182 369.428918 
L 204.238636 360.229091 
L 207.409091 376.217203 
L 210.579545 411.720681 
L 213.75 451.190753 
L 216.920455 484.075032 
L 220.090909 507.971636 
L 223.261364 524.34749 
L 226.431818 535.353286 
L 229.602273 542.745854 
L 232.772727 547.753954 
L 235.943182 551.192977 
L 239.113636 553.597468 
L 242.284091 555.320916 
L 245.454545 556.602585 
L 248.625 557.610176 
L 254.965909 559.259998 
L 261.306818 560.890361 
L 270.818182 563.494273 
L 273.988636 564.24961 
L 277.159091 564.879961 
L 280.329545 565.37449 
L 286.670455 566.005597 
L 293.011364 566.309356 
L 299.352273 566.380024 
L 315.204545 566.309533 
L 667.125 566.410909 
L 955.636364 566.410909 
L 955.636364 566.410909 
" style="fill:none;stroke:#1f77b4;stroke-linecap:square;stroke-width:1.5;"/>
   </g>
   <g id="patch_14">
    <path d="M 144 576.72 
L 144 349.92 
" style="fill:none;stroke:#000000;stroke-linecap:square;stroke-linejoin:miter;stroke-width:0.8;"/>
   </g>
   <g id="patch_15">
    <path d="M 549.818182 576.72 
L 549.818182 349.92 
" style="fill:none;stroke:#000000;stroke-linecap:square;stroke-linejoin:miter;stroke-width:0.8;"/>
   </g>
   <g id="patch_16">
    <path d="M 144 576.72 
L 549.818182 576.72 
" style="fill:none;stroke:#000000;stroke-linecap:square;stroke-linejoin:miter;stroke-width:0.8;"/>
   </g>
   <g id="patch_17">
    <path d="M 144 349.92 
L 549.818182 349.92 
" style="fill:none;stroke:#000000;stroke-linecap:square;stroke-linejoin:miter;stroke-width:0.8;"/>
   </g>
  </g>
  <g id="axes_4">
   <g id="patch_18">
    <path d="M 630.981818 576.72 
L 1036.8 576.72 
L 1036.8 349.92 
L 630.981818 349.92 
z
" style="fill:#ffffff;"/>
   </g>
   <g id="matplotlib.axis_7">
    <g id="xtick_19">
     <g id="line2d_54">
      <g>
       <use style="stroke:#000000;stroke-width:0.8;" x="649.428099" xlink:href="#mb09478fba4" y="576.72"/>
      </g>
     </g>
     <g id="text_48">
      <!-- 0.0 -->
      <g transform="translate(641.476537 591.318438)scale(0.1 -0.1)">
       <use xlink:href="#DejaVuSans-48"/>
       <use x="63.623047" xlink:href="#DejaVuSans-46"/>
       <use x="95.410156" xlink:href="#DejaVuSans-48"/>
      </g>
     </g>
    </g>
    <g id="xtick_20">
     <g id="line2d_55">
      <g>
       <use style="stroke:#000000;stroke-width:0.8;" x="697.970944" xlink:href="#mb09478fba4" y="576.72"/>
      </g>
     </g>
     <g id="text_49">
      <!-- 2.5 -->
      <g transform="translate(690.019381 591.318438)scale(0.1 -0.1)">
       <use xlink:href="#DejaVuSans-50"/>
       <use x="63.623047" xlink:href="#DejaVuSans-46"/>
       <use x="95.410156" xlink:href="#DejaVuSans-53"/>
      </g>
     </g>
    </g>
    <g id="xtick_21">
     <g id="line2d_56">
      <g>
       <use style="stroke:#000000;stroke-width:0.8;" x="746.513789" xlink:href="#mb09478fba4" y="576.72"/>
      </g>
     </g>
     <g id="text_50">
      <!-- 5.0 -->
      <g transform="translate(738.562226 591.318438)scale(0.1 -0.1)">
       <use xlink:href="#DejaVuSans-53"/>
       <use x="63.623047" xlink:href="#DejaVuSans-46"/>
       <use x="95.410156" xlink:href="#DejaVuSans-48"/>
      </g>
     </g>
    </g>
    <g id="xtick_22">
     <g id="line2d_57">
      <g>
       <use style="stroke:#000000;stroke-width:0.8;" x="795.056633" xlink:href="#mb09478fba4" y="576.72"/>
      </g>
     </g>
     <g id="text_51">
      <!-- 7.5 -->
      <defs>
       <path d="M 8.203125 72.90625 
L 55.078125 72.90625 
L 55.078125 68.703125 
L 28.609375 0 
L 18.3125 0 
L 43.21875 64.59375 
L 8.203125 64.59375 
z
" id="DejaVuSans-55"/>
      </defs>
      <g transform="translate(787.105071 591.318438)scale(0.1 -0.1)">
       <use xlink:href="#DejaVuSans-55"/>
       <use x="63.623047" xlink:href="#DejaVuSans-46"/>
       <use x="95.410156" xlink:href="#DejaVuSans-53"/>
      </g>
     </g>
    </g>
    <g id="xtick_23">
     <g id="line2d_58">
      <g>
       <use style="stroke:#000000;stroke-width:0.8;" x="843.599478" xlink:href="#mb09478fba4" y="576.72"/>
      </g>
     </g>
     <g id="text_52">
      <!-- 10.0 -->
      <g transform="translate(832.466666 591.318438)scale(0.1 -0.1)">
       <use xlink:href="#DejaVuSans-49"/>
       <use x="63.623047" xlink:href="#DejaVuSans-48"/>
       <use x="127.246094" xlink:href="#DejaVuSans-46"/>
       <use x="159.033203" xlink:href="#DejaVuSans-48"/>
      </g>
     </g>
    </g>
    <g id="xtick_24">
     <g id="line2d_59">
      <g>
       <use style="stroke:#000000;stroke-width:0.8;" x="892.142323" xlink:href="#mb09478fba4" y="576.72"/>
      </g>
     </g>
     <g id="text_53">
      <!-- 12.5 -->
      <g transform="translate(881.00951 591.318438)scale(0.1 -0.1)">
       <use xlink:href="#DejaVuSans-49"/>
       <use x="63.623047" xlink:href="#DejaVuSans-50"/>
       <use x="127.246094" xlink:href="#DejaVuSans-46"/>
       <use x="159.033203" xlink:href="#DejaVuSans-53"/>
      </g>
     </g>
    </g>
    <g id="xtick_25">
     <g id="line2d_60">
      <g>
       <use style="stroke:#000000;stroke-width:0.8;" x="940.685167" xlink:href="#mb09478fba4" y="576.72"/>
      </g>
     </g>
     <g id="text_54">
      <!-- 15.0 -->
      <g transform="translate(929.552355 591.318438)scale(0.1 -0.1)">
       <use xlink:href="#DejaVuSans-49"/>
       <use x="63.623047" xlink:href="#DejaVuSans-53"/>
       <use x="127.246094" xlink:href="#DejaVuSans-46"/>
       <use x="159.033203" xlink:href="#DejaVuSans-48"/>
      </g>
     </g>
    </g>
    <g id="xtick_26">
     <g id="line2d_61">
      <g>
       <use style="stroke:#000000;stroke-width:0.8;" x="989.228012" xlink:href="#mb09478fba4" y="576.72"/>
      </g>
     </g>
     <g id="text_55">
      <!-- 17.5 -->
      <g transform="translate(978.0952 591.318438)scale(0.1 -0.1)">
       <use xlink:href="#DejaVuSans-49"/>
       <use x="63.623047" xlink:href="#DejaVuSans-55"/>
       <use x="127.246094" xlink:href="#DejaVuSans-46"/>
       <use x="159.033203" xlink:href="#DejaVuSans-53"/>
      </g>
     </g>
    </g>
   </g>
   <g id="matplotlib.axis_8">
    <g id="ytick_22">
     <g id="line2d_62">
      <g>
       <use style="stroke:#000000;stroke-width:0.8;" x="630.981818" xlink:href="#mff09b5d150" y="544.964906"/>
      </g>
     </g>
     <g id="text_56">
      <!-- −0.020 -->
      <g transform="translate(586.974006 548.764125)scale(0.1 -0.1)">
       <use xlink:href="#DejaVuSans-8722"/>
       <use x="83.789062" xlink:href="#DejaVuSans-48"/>
       <use x="147.412109" xlink:href="#DejaVuSans-46"/>
       <use x="179.199219" xlink:href="#DejaVuSans-48"/>
       <use x="242.822266" xlink:href="#DejaVuSans-50"/>
       <use x="306.445312" xlink:href="#DejaVuSans-48"/>
      </g>
     </g>
    </g>
    <g id="ytick_23">
     <g id="line2d_63">
      <g>
       <use style="stroke:#000000;stroke-width:0.8;" x="630.981818" xlink:href="#mff09b5d150" y="511.407631"/>
      </g>
     </g>
     <g id="text_57">
      <!-- −0.015 -->
      <g transform="translate(586.974006 515.20685)scale(0.1 -0.1)">
       <use xlink:href="#DejaVuSans-8722"/>
       <use x="83.789062" xlink:href="#DejaVuSans-48"/>
       <use x="147.412109" xlink:href="#DejaVuSans-46"/>
       <use x="179.199219" xlink:href="#DejaVuSans-48"/>
       <use x="242.822266" xlink:href="#DejaVuSans-49"/>
       <use x="306.445312" xlink:href="#DejaVuSans-53"/>
      </g>
     </g>
    </g>
    <g id="ytick_24">
     <g id="line2d_64">
      <g>
       <use style="stroke:#000000;stroke-width:0.8;" x="630.981818" xlink:href="#mff09b5d150" y="477.850357"/>
      </g>
     </g>
     <g id="text_58">
      <!-- −0.010 -->
      <g transform="translate(586.974006 481.649576)scale(0.1 -0.1)">
       <use xlink:href="#DejaVuSans-8722"/>
       <use x="83.789062" xlink:href="#DejaVuSans-48"/>
       <use x="147.412109" xlink:href="#DejaVuSans-46"/>
       <use x="179.199219" xlink:href="#DejaVuSans-48"/>
       <use x="242.822266" xlink:href="#DejaVuSans-49"/>
       <use x="306.445312" xlink:href="#DejaVuSans-48"/>
      </g>
     </g>
    </g>
    <g id="ytick_25">
     <g id="line2d_65">
      <g>
       <use style="stroke:#000000;stroke-width:0.8;" x="630.981818" xlink:href="#mff09b5d150" y="444.293082"/>
      </g>
     </g>
     <g id="text_59">
      <!-- −0.005 -->
      <g transform="translate(586.974006 448.092301)scale(0.1 -0.1)">
       <use xlink:href="#DejaVuSans-8722"/>
       <use x="83.789062" xlink:href="#DejaVuSans-48"/>
       <use x="147.412109" xlink:href="#DejaVuSans-46"/>
       <use x="179.199219" xlink:href="#DejaVuSans-48"/>
       <use x="242.822266" xlink:href="#DejaVuSans-48"/>
       <use x="306.445312" xlink:href="#DejaVuSans-53"/>
      </g>
     </g>
    </g>
    <g id="ytick_26">
     <g id="line2d_66">
      <g>
       <use style="stroke:#000000;stroke-width:0.8;" x="630.981818" xlink:href="#mff09b5d150" y="410.735807"/>
      </g>
     </g>
     <g id="text_60">
      <!-- 0.000 -->
      <g transform="translate(595.353693 414.535026)scale(0.1 -0.1)">
       <use xlink:href="#DejaVuSans-48"/>
       <use x="63.623047" xlink:href="#DejaVuSans-46"/>
       <use x="95.410156" xlink:href="#DejaVuSans-48"/>
       <use x="159.033203" xlink:href="#DejaVuSans-48"/>
       <use x="222.65625" xlink:href="#DejaVuSans-48"/>
      </g>
     </g>
    </g>
    <g id="ytick_27">
     <g id="line2d_67">
      <g>
       <use style="stroke:#000000;stroke-width:0.8;" x="630.981818" xlink:href="#mff09b5d150" y="377.178533"/>
      </g>
     </g>
     <g id="text_61">
      <!-- 0.005 -->
      <g transform="translate(595.353693 380.977751)scale(0.1 -0.1)">
       <use xlink:href="#DejaVuSans-48"/>
       <use x="63.623047" xlink:href="#DejaVuSans-46"/>
       <use x="95.410156" xlink:href="#DejaVuSans-48"/>
       <use x="159.033203" xlink:href="#DejaVuSans-48"/>
       <use x="222.65625" xlink:href="#DejaVuSans-53"/>
      </g>
     </g>
    </g>
    <g id="text_62">
     <!-- eigenvalues -->
     <defs>
      <path d="M 45.40625 27.984375 
Q 45.40625 37.75 41.375 43.109375 
Q 37.359375 48.484375 30.078125 48.484375 
Q 22.859375 48.484375 18.828125 43.109375 
Q 14.796875 37.75 14.796875 27.984375 
Q 14.796875 18.265625 18.828125 12.890625 
Q 22.859375 7.515625 30.078125 7.515625 
Q 37.359375 7.515625 41.375 12.890625 
Q 45.40625 18.265625 45.40625 27.984375 
z
M 54.390625 6.78125 
Q 54.390625 -7.171875 48.1875 -13.984375 
Q 42 -20.796875 29.203125 -20.796875 
Q 24.46875 -20.796875 20.265625 -20.09375 
Q 16.0625 -19.390625 12.109375 -17.921875 
L 12.109375 -9.1875 
Q 16.0625 -11.328125 19.921875 -12.34375 
Q 23.78125 -13.375 27.78125 -13.375 
Q 36.625 -13.375 41.015625 -8.765625 
Q 45.40625 -4.15625 45.40625 5.171875 
L 45.40625 9.625 
Q 42.625 4.78125 38.28125 2.390625 
Q 33.9375 0 27.875 0 
Q 17.828125 0 11.671875 7.65625 
Q 5.515625 15.328125 5.515625 27.984375 
Q 5.515625 40.671875 11.671875 48.328125 
Q 17.828125 56 27.875 56 
Q 33.9375 56 38.28125 53.609375 
Q 42.625 51.21875 45.40625 46.390625 
L 45.40625 54.6875 
L 54.390625 54.6875 
z
" id="DejaVuSans-103"/>
      <path d="M 2.984375 54.6875 
L 12.5 54.6875 
L 29.59375 8.796875 
L 46.6875 54.6875 
L 56.203125 54.6875 
L 35.6875 0 
L 23.484375 0 
z
" id="DejaVuSans-118"/>
     </defs>
     <g transform="translate(580.894318 493.467656)rotate(-90)scale(0.1 -0.1)">
      <use xlink:href="#DejaVuSans-101"/>
      <use x="61.523438" xlink:href="#DejaVuSans-105"/>
      <use x="89.306641" xlink:href="#DejaVuSans-103"/>
      <use x="152.783203" xlink:href="#DejaVuSans-101"/>
      <use x="214.306641" xlink:href="#DejaVuSans-110"/>
      <use x="277.685547" xlink:href="#DejaVuSans-118"/>
      <use x="336.865234" xlink:href="#DejaVuSans-97"/>
      <use x="398.144531" xlink:href="#DejaVuSans-108"/>
      <use x="425.927734" xlink:href="#DejaVuSans-117"/>
      <use x="489.306641" xlink:href="#DejaVuSans-101"/>
      <use x="550.830078" xlink:href="#DejaVuSans-115"/>
     </g>
    </g>
   </g>
   <g id="line2d_68">
    <defs>
     <path d="M 0 3 
C 0.795609 3 1.55874 2.683901 2.12132 2.12132 
C 2.683901 1.55874 3 0.795609 3 0 
C 3 -0.795609 2.683901 -1.55874 2.12132 -2.12132 
C 1.55874 -2.683901 0.795609 -3 0 -3 
C -0.795609 -3 -1.55874 -2.683901 -2.12132 -2.12132 
C -2.683901 -1.55874 -3 -0.795609 -3 0 
C -3 0.795609 -2.683901 1.55874 -2.12132 2.12132 
C -1.55874 2.683901 -0.795609 3 0 3 
z
" id="m5b00f28e8e" style="stroke:#1f77b4;"/>
    </defs>
    <g clip-path="url(#p4289bcea21)">
     <use style="fill:#1f77b4;stroke:#1f77b4;" x="668.845237" xlink:href="#m5b00f28e8e" y="410.73581"/>
     <use style="fill:#1f77b4;stroke:#1f77b4;" x="688.262375" xlink:href="#m5b00f28e8e" y="469.124542"/>
     <use style="fill:#1f77b4;stroke:#1f77b4;" x="707.679513" xlink:href="#m5b00f28e8e" y="477.207041"/>
     <use style="fill:#1f77b4;stroke:#1f77b4;" x="727.096651" xlink:href="#m5b00f28e8e" y="485.978634"/>
     <use style="fill:#1f77b4;stroke:#1f77b4;" x="746.513789" xlink:href="#m5b00f28e8e" y="486.748848"/>
     <use style="fill:#1f77b4;stroke:#1f77b4;" x="765.930926" xlink:href="#m5b00f28e8e" y="488.637185"/>
     <use style="fill:#1f77b4;stroke:#1f77b4;" x="785.348064" xlink:href="#m5b00f28e8e" y="492.058275"/>
     <use style="fill:#1f77b4;stroke:#1f77b4;" x="804.765202" xlink:href="#m5b00f28e8e" y="496.327025"/>
     <use style="fill:#1f77b4;stroke:#1f77b4;" x="824.18234" xlink:href="#m5b00f28e8e" y="500.656058"/>
     <use style="fill:#1f77b4;stroke:#1f77b4;" x="843.599478" xlink:href="#m5b00f28e8e" y="501.203851"/>
     <use style="fill:#1f77b4;stroke:#1f77b4;" x="863.016616" xlink:href="#m5b00f28e8e" y="510.363518"/>
     <use style="fill:#1f77b4;stroke:#1f77b4;" x="882.433754" xlink:href="#m5b00f28e8e" y="518.245895"/>
     <use style="fill:#1f77b4;stroke:#1f77b4;" x="901.850892" xlink:href="#m5b00f28e8e" y="520.845075"/>
     <use style="fill:#1f77b4;stroke:#1f77b4;" x="921.26803" xlink:href="#m5b00f28e8e" y="527.189728"/>
     <use style="fill:#1f77b4;stroke:#1f77b4;" x="940.685167" xlink:href="#m5b00f28e8e" y="534.453986"/>
     <use style="fill:#1f77b4;stroke:#1f77b4;" x="960.102305" xlink:href="#m5b00f28e8e" y="546.93285"/>
     <use style="fill:#1f77b4;stroke:#1f77b4;" x="979.519443" xlink:href="#m5b00f28e8e" y="554.668156"/>
     <use style="fill:#1f77b4;stroke:#1f77b4;" x="998.936581" xlink:href="#m5b00f28e8e" y="563.201322"/>
     <use style="fill:#1f77b4;stroke:#1f77b4;" x="1018.353719" xlink:href="#m5b00f28e8e" y="566.410909"/>
    </g>
   </g>
   <g id="line2d_69">
    <defs>
     <path d="M 0 3 
C 0.795609 3 1.55874 2.683901 2.12132 2.12132 
C 2.683901 1.55874 3 0.795609 3 0 
C 3 -0.795609 2.683901 -1.55874 2.12132 -2.12132 
C 1.55874 -2.683901 0.795609 -3 0 -3 
C -0.795609 -3 -1.55874 -2.683901 -2.12132 -2.12132 
C -2.683901 -1.55874 -3 -0.795609 -3 0 
C -3 0.795609 -2.683901 1.55874 -2.12132 2.12132 
C -1.55874 2.683901 -0.795609 3 0 3 
z
" id="m843b601a4e" style="stroke:#ff7f0e;"/>
    </defs>
    <g clip-path="url(#p4289bcea21)">
     <use style="fill:#ff7f0e;stroke:#ff7f0e;" x="649.428099" xlink:href="#m843b601a4e" y="360.229091"/>
    </g>
   </g>
   <g id="line2d_70">
    <path clip-path="url(#p4289bcea21)" d="M 630.981818 410.735807 
L 1036.8 410.735807 
" style="fill:none;stroke:#808080;stroke-linecap:square;stroke-width:1.5;"/>
   </g>
   <g id="patch_19">
    <path d="M 630.981818 576.72 
L 630.981818 349.92 
" style="fill:none;stroke:#000000;stroke-linecap:square;stroke-linejoin:miter;stroke-width:0.8;"/>
   </g>
   <g id="patch_20">
    <path d="M 1036.8 576.72 
L 1036.8 349.92 
" style="fill:none;stroke:#000000;stroke-linecap:square;stroke-linejoin:miter;stroke-width:0.8;"/>
   </g>
   <g id="patch_21">
    <path d="M 630.981818 576.72 
L 1036.8 576.72 
" style="fill:none;stroke:#000000;stroke-linecap:square;stroke-linejoin:miter;stroke-width:0.8;"/>
   </g>
   <g id="patch_22">
    <path d="M 630.981818 349.92 
L 1036.8 349.92 
" style="fill:none;stroke:#000000;stroke-linecap:square;stroke-linejoin:miter;stroke-width:0.8;"/>
   </g>
   <g id="legend_2">
    <g id="patch_23">
     <path d="M 963.60625 387.27625 
L 1029.8 387.27625 
Q 1031.8 387.27625 1031.8 385.27625 
L 1031.8 356.92 
Q 1031.8 354.92 1029.8 354.92 
L 963.60625 354.92 
Q 961.60625 354.92 961.60625 356.92 
L 961.60625 385.27625 
Q 961.60625 387.27625 963.60625 387.27625 
z
" style="fill:#ffffff;opacity:0.8;stroke:#cccccc;stroke-linejoin:miter;"/>
    </g>
    <g id="line2d_71"/>
    <g id="line2d_72">
     <g>
      <use style="fill:#1f77b4;stroke:#1f77b4;" x="975.60625" xlink:href="#m5b00f28e8e" y="363.018437"/>
     </g>
    </g>
    <g id="text_63">
     <!-- Re &lt; 0 -->
     <defs>
      <path d="M 44.390625 34.1875 
Q 47.5625 33.109375 50.5625 29.59375 
Q 53.5625 26.078125 56.59375 19.921875 
L 66.609375 0 
L 56 0 
L 46.6875 18.703125 
Q 43.0625 26.03125 39.671875 28.421875 
Q 36.28125 30.8125 30.421875 30.8125 
L 19.671875 30.8125 
L 19.671875 0 
L 9.8125 0 
L 9.8125 72.90625 
L 32.078125 72.90625 
Q 44.578125 72.90625 50.734375 67.671875 
Q 56.890625 62.453125 56.890625 51.90625 
Q 56.890625 45.015625 53.6875 40.46875 
Q 50.484375 35.9375 44.390625 34.1875 
z
M 19.671875 64.796875 
L 19.671875 38.921875 
L 32.078125 38.921875 
Q 39.203125 38.921875 42.84375 42.21875 
Q 46.484375 45.515625 46.484375 51.90625 
Q 46.484375 58.296875 42.84375 61.546875 
Q 39.203125 64.796875 32.078125 64.796875 
z
" id="DejaVuSans-82"/>
      <path d="M 73.1875 49.21875 
L 22.796875 31.296875 
L 73.1875 13.484375 
L 73.1875 4.59375 
L 10.59375 27.296875 
L 10.59375 35.40625 
L 73.1875 58.109375 
z
" id="DejaVuSans-60"/>
     </defs>
     <g transform="translate(993.60625 366.518437)scale(0.1 -0.1)">
      <use xlink:href="#DejaVuSans-82"/>
      <use x="69.419922" xlink:href="#DejaVuSans-101"/>
      <use x="130.943359" xlink:href="#DejaVuSans-32"/>
      <use x="162.730469" xlink:href="#DejaVuSans-60"/>
      <use x="246.519531" xlink:href="#DejaVuSans-32"/>
      <use x="278.306641" xlink:href="#DejaVuSans-48"/>
     </g>
    </g>
    <g id="line2d_73"/>
    <g id="line2d_74">
     <g>
      <use style="fill:#ff7f0e;stroke:#ff7f0e;" x="975.60625" xlink:href="#m843b601a4e" y="377.696562"/>
     </g>
    </g>
    <g id="text_64">
     <!-- Re &gt; 0 -->
     <defs>
      <path d="M 10.59375 49.21875 
L 10.59375 58.109375 
L 73.1875 35.40625 
L 73.1875 27.296875 
L 10.59375 4.59375 
L 10.59375 13.484375 
L 60.890625 31.296875 
z
" id="DejaVuSans-62"/>
     </defs>
     <g transform="translate(993.60625 381.196562)scale(0.1 -0.1)">
      <use xlink:href="#DejaVuSans-82"/>
      <use x="69.419922" xlink:href="#DejaVuSans-101"/>
      <use x="130.943359" xlink:href="#DejaVuSans-32"/>
      <use x="162.730469" xlink:href="#DejaVuSans-62"/>
      <use x="246.519531" xlink:href="#DejaVuSans-32"/>
      <use x="278.306641" xlink:href="#DejaVuSans-48"/>
     </g>
    </g>
   </g>
  </g>
 </g>
 <defs>
  <clipPath id="p5990b76a3a">
   <rect height="226.8" width="405.818182" x="144" y="77.76"/>
  </clipPath>
  <clipPath id="p90a7811015">
   <rect height="226.8" width="405.818182" x="630.981818" y="77.76"/>
  </clipPath>
  <clipPath id="pe2d45e08f7">
   <rect height="226.8" width="405.818182" x="144" y="349.92"/>
  </clipPath>
  <clipPath id="p4289bcea21">
   <rect height="226.8" width="405.818182" x="630.981818" y="349.92"/>
  </clipPath>
 </defs>
</svg>
